STARTFONT 2.1
COMMENT This font was automatically resized by bdfresize-1.5
COMMENT   mag_x = 3/1, mag_y = 3/1, blackness = 4
COMMENT MZ-700 like ASCII font
COMMENT 8x8 dot bitmap font
COMMENT not resize. original size.
FONT -Pet2015bdfascii-Fixed-Medium-R-Normal--24-240-75-75-M-240-ISO10646-1
SIZE 24 75 75
FONTBOUNDINGBOX 24 24 0 0
STARTPROPERTIES 19
FONT_ASCENT 24
FONT_DESCENT 0
DEFAULT_CHAR 32
COPYRIGHT "mieki256"
FONTNAME_REGISTRY ""
FOUNDRY "Pet2015bdfascii"
FAMILY_NAME "Fixed"
WEIGHT_NAME "Medium"
SLANT "R"
SETWIDTH_NAME "Normal"
ADD_STYLE_NAME ""
PIXEL_SIZE 24
POINT_SIZE 240
RESOLUTION_X 75
RESOLUTION_Y 75
SPACING "M"
AVERAGE_WIDTH 240
CHARSET_REGISTRY "ISO10646"
CHARSET_ENCODING "1"
ENDPROPERTIES
CHARS 344
STARTCHAR 20
ENCODING 32
SWIDTH 2880 0
DWIDTH 24 0
BBX 24 24 0 0
BITMAP
000000
000000
000000
000000
000000
000000
000000
000000
000000
000000
000000
000000
000000
000000
000000
000000
000000
000000
000000
000000
000000
000000
000000
000000
ENDCHAR
STARTCHAR 21
ENCODING 33
SWIDTH 2880 0
DWIDTH 24 0
BBX 24 24 0 0
BITMAP
007E00
007E00
007E00
007E00
007E00
007E00
007E00
007E00
007E00
007E00
007E00
007E00
000000
000000
000000
007E00
007E00
007E00
007E00
007E00
007E00
000000
000000
000000
ENDCHAR
STARTCHAR 22
ENCODING 34
SWIDTH 2880 0
DWIDTH 24 0
BBX 24 24 0 0
BITMAP
1F8FC0
1F8FC0
1F8FC0
1F8FC0
1F8FC0
1F8FC0
000000
000000
000000
000000
000000
000000
000000
000000
000000
000000
000000
000000
000000
000000
000000
000000
000000
000000
ENDCHAR
STARTCHAR 23
ENCODING 35
SWIDTH 2880 0
DWIDTH 24 0
BBX 24 24 0 0
BITMAP
1C01C0
1C01C0
1C01C0
FFFFF8
FFFFF8
FFFFF8
1C01C0
1C01C0
1C01C0
1C01C0
1C01C0
1C01C0
FFFFF8
FFFFF8
FFFFF8
1C01C0
1C01C0
1C01C0
1C01C0
1C01C0
1C01C0
000000
000000
000000
ENDCHAR
STARTCHAR 24
ENCODING 36
SWIDTH 2880 0
DWIDTH 24 0
BBX 24 24 0 0
BITMAP
007000
007000
007000
FFFFF8
FFFFF8
FFFFF8
E07000
E07000
E07000
FFFFF8
FFFFF8
FFFFF8
007038
007038
007038
FFFFF8
FFFFF8
FFFFF8
007000
007000
007000
000000
000000
000000
ENDCHAR
STARTCHAR 25
ENCODING 37
SWIDTH 2880 0
DWIDTH 24 0
BBX 24 24 0 0
BITMAP
FF8038
FF8038
FF8038
E381C0
E381C0
E381C0
E38E00
E38E00
E38E00
FFFFF8
FFFFF8
FFFFF8
038E38
038E38
038E38
1C0E38
1C0E38
1C0E38
E00FF8
E00FF8
E00FF8
000000
000000
000000
ENDCHAR
STARTCHAR 26
ENCODING 38
SWIDTH 2880 0
DWIDTH 24 0
BBX 24 24 0 0
BITMAP
FFFE00
FFFE00
FFFE00
E00E00
E00E00
E00E00
E00E00
E00E00
E00E00
1FF000
1FF000
1FF000
E00E38
E00E38
E00E38
E001C0
E001C0
E001C0
FFFE38
FFFE38
FFFE38
000000
000000
000000
ENDCHAR
STARTCHAR 27
ENCODING 39
SWIDTH 2880 0
DWIDTH 24 0
BBX 24 24 0 0
BITMAP
007E00
007E00
007E00
03F000
03F000
03F000
000000
000000
000000
000000
000000
000000
000000
000000
000000
000000
000000
000000
000000
000000
000000
000000
000000
000000
ENDCHAR
STARTCHAR 28
ENCODING 40
SWIDTH 2880 0
DWIDTH 24 0
BBX 24 24 0 0
BITMAP
000E00
000E00
000E00
007000
007000
007000
038000
038000
038000
038000
038000
038000
038000
038000
038000
007000
007000
007000
000E00
000E00
000E00
000000
000000
000000
ENDCHAR
STARTCHAR 29
ENCODING 41
SWIDTH 2880 0
DWIDTH 24 0
BBX 24 24 0 0
BITMAP
038000
038000
038000
007000
007000
007000
000E00
000E00
000E00
000E00
000E00
000E00
000E00
000E00
000E00
007000
007000
007000
038000
038000
038000
000000
000000
000000
ENDCHAR
STARTCHAR 2a
ENCODING 42
SWIDTH 2880 0
DWIDTH 24 0
BBX 24 24 0 0
BITMAP
007000
007000
007000
E07038
E07038
E07038
1C71C0
1C71C0
1C71C0
03FE00
03FE00
03FE00
1C71C0
1C71C0
1C71C0
E07038
E07038
E07038
007000
007000
007000
000000
000000
000000
ENDCHAR
STARTCHAR 2b
ENCODING 43
SWIDTH 2880 0
DWIDTH 24 0
BBX 24 24 0 0
BITMAP
007000
007000
007000
007000
007000
007000
007000
007000
007000
FFFFF8
FFFFF8
FFFFF8
007000
007000
007000
007000
007000
007000
007000
007000
007000
000000
000000
000000
ENDCHAR
STARTCHAR 2c
ENCODING 44
SWIDTH 2880 0
DWIDTH 24 0
BBX 24 24 0 0
BITMAP
000000
000000
000000
000000
000000
000000
000000
000000
000000
000000
000000
000000
007E00
007E00
007E00
007E00
007E00
007E00
000E00
000E00
000E00
007000
007000
007000
ENDCHAR
STARTCHAR 2d
ENCODING 45
SWIDTH 2880 0
DWIDTH 24 0
BBX 24 24 0 0
BITMAP
000000
000000
000000
000000
000000
000000
000000
000000
000000
FFFFF8
FFFFF8
FFFFF8
000000
000000
000000
000000
000000
000000
000000
000000
000000
000000
000000
000000
ENDCHAR
STARTCHAR 2e
ENCODING 46
SWIDTH 2880 0
DWIDTH 24 0
BBX 24 24 0 0
BITMAP
000000
000000
000000
000000
000000
000000
000000
000000
000000
000000
000000
000000
000000
000000
000000
007E00
007E00
007E00
007E00
007E00
007E00
000000
000000
000000
ENDCHAR
STARTCHAR 2f
ENCODING 47
SWIDTH 2880 0
DWIDTH 24 0
BBX 24 24 0 0
BITMAP
000000
000000
000000
000038
000038
000038
0001C0
0001C0
0001C0
000E00
000E00
000E00
007000
007000
007000
038000
038000
038000
1C0000
1C0000
1C0000
000000
000000
000000
ENDCHAR
STARTCHAR 30
ENCODING 48
SWIDTH 2880 0
DWIDTH 24 0
BBX 24 24 0 0
BITMAP
1FFFC0
1FFFC0
1FFFC0
E00038
E00038
E00038
E00E38
E00E38
E00E38
E07038
E07038
E07038
E38038
E38038
E38038
E00038
E00038
E00038
1FFFC0
1FFFC0
1FFFC0
000000
000000
000000
ENDCHAR
STARTCHAR 31
ENCODING 49
SWIDTH 2880 0
DWIDTH 24 0
BBX 24 24 0 0
BITMAP
007000
007000
007000
03F000
03F000
03F000
1C7000
1C7000
1C7000
007000
007000
007000
007000
007000
007000
007000
007000
007000
1FFFC0
1FFFC0
1FFFC0
000000
000000
000000
ENDCHAR
STARTCHAR 32
ENCODING 50
SWIDTH 2880 0
DWIDTH 24 0
BBX 24 24 0 0
BITMAP
1FFFC0
1FFFC0
1FFFC0
E00038
E00038
E00038
000038
000038
000038
1FFFC0
1FFFC0
1FFFC0
E00000
E00000
E00000
E00000
E00000
E00000
FFFFF8
FFFFF8
FFFFF8
000000
000000
000000
ENDCHAR
STARTCHAR 33
ENCODING 51
SWIDTH 2880 0
DWIDTH 24 0
BBX 24 24 0 0
BITMAP
1FFFC0
1FFFC0
1FFFC0
E00038
E00038
E00038
000038
000038
000038
007FC0
007FC0
007FC0
000038
000038
000038
E00038
E00038
E00038
1FFFC0
1FFFC0
1FFFC0
000000
000000
000000
ENDCHAR
STARTCHAR 34
ENCODING 52
SWIDTH 2880 0
DWIDTH 24 0
BBX 24 24 0 0
BITMAP
0001C0
0001C0
0001C0
000FC0
000FC0
000FC0
0071C0
0071C0
0071C0
0381C0
0381C0
0381C0
1C01C0
1C01C0
1C01C0
FFFFF8
FFFFF8
FFFFF8
0001C0
0001C0
0001C0
000000
000000
000000
ENDCHAR
STARTCHAR 35
ENCODING 53
SWIDTH 2880 0
DWIDTH 24 0
BBX 24 24 0 0
BITMAP
FFFFF8
FFFFF8
FFFFF8
E00000
E00000
E00000
E00000
E00000
E00000
FFFFC0
FFFFC0
FFFFC0
000038
000038
000038
E00038
E00038
E00038
1FFFC0
1FFFC0
1FFFC0
000000
000000
000000
ENDCHAR
STARTCHAR 36
ENCODING 54
SWIDTH 2880 0
DWIDTH 24 0
BBX 24 24 0 0
BITMAP
1FFFC0
1FFFC0
1FFFC0
E00000
E00000
E00000
E00000
E00000
E00000
FFFFC0
FFFFC0
FFFFC0
E00038
E00038
E00038
E00038
E00038
E00038
1FFFC0
1FFFC0
1FFFC0
000000
000000
000000
ENDCHAR
STARTCHAR 37
ENCODING 55
SWIDTH 2880 0
DWIDTH 24 0
BBX 24 24 0 0
BITMAP
FFFFF8
FFFFF8
FFFFF8
000038
000038
000038
0001C0
0001C0
0001C0
000E00
000E00
000E00
007000
007000
007000
007000
007000
007000
007000
007000
007000
000000
000000
000000
ENDCHAR
STARTCHAR 38
ENCODING 56
SWIDTH 2880 0
DWIDTH 24 0
BBX 24 24 0 0
BITMAP
1FFFC0
1FFFC0
1FFFC0
E00038
E00038
E00038
E00038
E00038
E00038
1FFFC0
1FFFC0
1FFFC0
E00038
E00038
E00038
E00038
E00038
E00038
1FFFC0
1FFFC0
1FFFC0
000000
000000
000000
ENDCHAR
STARTCHAR 39
ENCODING 57
SWIDTH 2880 0
DWIDTH 24 0
BBX 24 24 0 0
BITMAP
1FFFC0
1FFFC0
1FFFC0
E00038
E00038
E00038
E00038
E00038
E00038
1FFFF8
1FFFF8
1FFFF8
000038
000038
000038
000038
000038
000038
1FFFC0
1FFFC0
1FFFC0
000000
000000
000000
ENDCHAR
STARTCHAR 3a
ENCODING 58
SWIDTH 2880 0
DWIDTH 24 0
BBX 24 24 0 0
BITMAP
000000
000000
000000
007E00
007E00
007E00
007E00
007E00
007E00
000000
000000
000000
007E00
007E00
007E00
007E00
007E00
007E00
000000
000000
000000
000000
000000
000000
ENDCHAR
STARTCHAR 3b
ENCODING 59
SWIDTH 2880 0
DWIDTH 24 0
BBX 24 24 0 0
BITMAP
000000
000000
000000
007E00
007E00
007E00
007E00
007E00
007E00
000000
000000
000000
007E00
007E00
007E00
007E00
007E00
007E00
000E00
000E00
000E00
007000
007000
007000
ENDCHAR
STARTCHAR 3c
ENCODING 60
SWIDTH 2880 0
DWIDTH 24 0
BBX 24 24 0 0
BITMAP
0001C0
0001C0
0001C0
000E00
000E00
000E00
007000
007000
007000
038000
038000
038000
007000
007000
007000
000E00
000E00
000E00
0001C0
0001C0
0001C0
000000
000000
000000
ENDCHAR
STARTCHAR 3d
ENCODING 61
SWIDTH 2880 0
DWIDTH 24 0
BBX 24 24 0 0
BITMAP
000000
000000
000000
000000
000000
000000
FFFFF8
FFFFF8
FFFFF8
000000
000000
000000
FFFFF8
FFFFF8
FFFFF8
000000
000000
000000
000000
000000
000000
000000
000000
000000
ENDCHAR
STARTCHAR 3e
ENCODING 62
SWIDTH 2880 0
DWIDTH 24 0
BBX 24 24 0 0
BITMAP
038000
038000
038000
007000
007000
007000
000E00
000E00
000E00
0001C0
0001C0
0001C0
000E00
000E00
000E00
007000
007000
007000
038000
038000
038000
000000
000000
000000
ENDCHAR
STARTCHAR 3f
ENCODING 63
SWIDTH 2880 0
DWIDTH 24 0
BBX 24 24 0 0
BITMAP
1FFFC0
1FFFC0
1FFFC0
FC01F8
FC01F8
FC01F8
FC01F8
FC01F8
FC01F8
000FC0
000FC0
000FC0
007E00
007E00
007E00
000000
000000
000000
007E00
007E00
007E00
000000
000000
000000
ENDCHAR
STARTCHAR 40
ENCODING 64
SWIDTH 2880 0
DWIDTH 24 0
BBX 24 24 0 0
BITMAP
1FFFC0
1FFFC0
1FFFC0
E00038
E00038
E00038
E3FE38
E3FE38
E3FE38
E38E38
E38E38
E38E38
E3FFC0
E3FFC0
E3FFC0
E00000
E00000
E00000
1FFFF8
1FFFF8
1FFFF8
000000
000000
000000
ENDCHAR
STARTCHAR 41
ENCODING 65
SWIDTH 2880 0
DWIDTH 24 0
BBX 24 24 0 0
BITMAP
1FFFC0
1FFFC0
1FFFC0
E00038
E00038
E00038
E00038
E00038
E00038
E00038
E00038
E00038
FFFFF8
FFFFF8
FFFFF8
E00038
E00038
E00038
E00038
E00038
E00038
000000
000000
000000
ENDCHAR
STARTCHAR 42
ENCODING 66
SWIDTH 2880 0
DWIDTH 24 0
BBX 24 24 0 0
BITMAP
FFFFC0
FFFFC0
FFFFC0
E00038
E00038
E00038
E00038
E00038
E00038
FFFFC0
FFFFC0
FFFFC0
E00038
E00038
E00038
E00038
E00038
E00038
FFFFC0
FFFFC0
FFFFC0
000000
000000
000000
ENDCHAR
STARTCHAR 43
ENCODING 67
SWIDTH 2880 0
DWIDTH 24 0
BBX 24 24 0 0
BITMAP
1FFFC0
1FFFC0
1FFFC0
E00038
E00038
E00038
E00000
E00000
E00000
E00000
E00000
E00000
E00000
E00000
E00000
E00038
E00038
E00038
1FFFC0
1FFFC0
1FFFC0
000000
000000
000000
ENDCHAR
STARTCHAR 44
ENCODING 68
SWIDTH 2880 0
DWIDTH 24 0
BBX 24 24 0 0
BITMAP
FFFFC0
FFFFC0
FFFFC0
E00038
E00038
E00038
E00038
E00038
E00038
E00038
E00038
E00038
E00038
E00038
E00038
E00038
E00038
E00038
FFFFC0
FFFFC0
FFFFC0
000000
000000
000000
ENDCHAR
STARTCHAR 45
ENCODING 69
SWIDTH 2880 0
DWIDTH 24 0
BBX 24 24 0 0
BITMAP
FFFFF8
FFFFF8
FFFFF8
E00000
E00000
E00000
E00000
E00000
E00000
FFFFC0
FFFFC0
FFFFC0
E00000
E00000
E00000
E00000
E00000
E00000
FFFFF8
FFFFF8
FFFFF8
000000
000000
000000
ENDCHAR
STARTCHAR 46
ENCODING 70
SWIDTH 2880 0
DWIDTH 24 0
BBX 24 24 0 0
BITMAP
FFFFF8
FFFFF8
FFFFF8
E00000
E00000
E00000
E00000
E00000
E00000
FFFFC0
FFFFC0
FFFFC0
E00000
E00000
E00000
E00000
E00000
E00000
E00000
E00000
E00000
000000
000000
000000
ENDCHAR
STARTCHAR 47
ENCODING 71
SWIDTH 2880 0
DWIDTH 24 0
BBX 24 24 0 0
BITMAP
1FFFC0
1FFFC0
1FFFC0
E00038
E00038
E00038
E00000
E00000
E00000
E00FF8
E00FF8
E00FF8
E00038
E00038
E00038
E00038
E00038
E00038
1FFFC0
1FFFC0
1FFFC0
000000
000000
000000
ENDCHAR
STARTCHAR 48
ENCODING 72
SWIDTH 2880 0
DWIDTH 24 0
BBX 24 24 0 0
BITMAP
E00038
E00038
E00038
E00038
E00038
E00038
E00038
E00038
E00038
FFFFF8
FFFFF8
FFFFF8
E00038
E00038
E00038
E00038
E00038
E00038
E00038
E00038
E00038
000000
000000
000000
ENDCHAR
STARTCHAR 49
ENCODING 73
SWIDTH 2880 0
DWIDTH 24 0
BBX 24 24 0 0
BITMAP
03FE00
03FE00
03FE00
007000
007000
007000
007000
007000
007000
007000
007000
007000
007000
007000
007000
007000
007000
007000
03FE00
03FE00
03FE00
000000
000000
000000
ENDCHAR
STARTCHAR 4a
ENCODING 74
SWIDTH 2880 0
DWIDTH 24 0
BBX 24 24 0 0
BITMAP
000FF8
000FF8
000FF8
0001C0
0001C0
0001C0
0001C0
0001C0
0001C0
0001C0
0001C0
0001C0
0001C0
0001C0
0001C0
E001C0
E001C0
E001C0
1FFE00
1FFE00
1FFE00
000000
000000
000000
ENDCHAR
STARTCHAR 4b
ENCODING 75
SWIDTH 2880 0
DWIDTH 24 0
BBX 24 24 0 0
BITMAP
E00038
E00038
E00038
E001C0
E001C0
E001C0
E00E00
E00E00
E00E00
FFF000
FFF000
FFF000
E00E00
E00E00
E00E00
E001C0
E001C0
E001C0
E00038
E00038
E00038
000000
000000
000000
ENDCHAR
STARTCHAR 4c
ENCODING 76
SWIDTH 2880 0
DWIDTH 24 0
BBX 24 24 0 0
BITMAP
E00000
E00000
E00000
E00000
E00000
E00000
E00000
E00000
E00000
E00000
E00000
E00000
E00000
E00000
E00000
E00000
E00000
E00000
FFFFF8
FFFFF8
FFFFF8
000000
000000
000000
ENDCHAR
STARTCHAR 4d
ENCODING 77
SWIDTH 2880 0
DWIDTH 24 0
BBX 24 24 0 0
BITMAP
E00038
E00038
E00038
FC01F8
FC01F8
FC01F8
E38E38
E38E38
E38E38
E07038
E07038
E07038
E00038
E00038
E00038
E00038
E00038
E00038
E00038
E00038
E00038
000000
000000
000000
ENDCHAR
STARTCHAR 4e
ENCODING 78
SWIDTH 2880 0
DWIDTH 24 0
BBX 24 24 0 0
BITMAP
E00038
E00038
E00038
FC0038
FC0038
FC0038
E38038
E38038
E38038
E07038
E07038
E07038
E00E38
E00E38
E00E38
E001F8
E001F8
E001F8
E00038
E00038
E00038
000000
000000
000000
ENDCHAR
STARTCHAR 4f
ENCODING 79
SWIDTH 2880 0
DWIDTH 24 0
BBX 24 24 0 0
BITMAP
1FFFC0
1FFFC0
1FFFC0
E00038
E00038
E00038
E00038
E00038
E00038
E00038
E00038
E00038
E00038
E00038
E00038
E00038
E00038
E00038
1FFFC0
1FFFC0
1FFFC0
000000
000000
000000
ENDCHAR
STARTCHAR 50
ENCODING 80
SWIDTH 2880 0
DWIDTH 24 0
BBX 24 24 0 0
BITMAP
FFFFC0
FFFFC0
FFFFC0
E00038
E00038
E00038
E00038
E00038
E00038
FFFFC0
FFFFC0
FFFFC0
E00000
E00000
E00000
E00000
E00000
E00000
E00000
E00000
E00000
000000
000000
000000
ENDCHAR
STARTCHAR 51
ENCODING 81
SWIDTH 2880 0
DWIDTH 24 0
BBX 24 24 0 0
BITMAP
1FFFC0
1FFFC0
1FFFC0
E00038
E00038
E00038
E00038
E00038
E00038
E00038
E00038
E00038
E00E38
E00E38
E00E38
E001C0
E001C0
E001C0
1FFE38
1FFE38
1FFE38
000000
000000
000000
ENDCHAR
STARTCHAR 52
ENCODING 82
SWIDTH 2880 0
DWIDTH 24 0
BBX 24 24 0 0
BITMAP
FFFFC0
FFFFC0
FFFFC0
E00038
E00038
E00038
E00038
E00038
E00038
FFFFC0
FFFFC0
FFFFC0
E00E00
E00E00
E00E00
E001C0
E001C0
E001C0
E00038
E00038
E00038
000000
000000
000000
ENDCHAR
STARTCHAR 53
ENCODING 83
SWIDTH 2880 0
DWIDTH 24 0
BBX 24 24 0 0
BITMAP
1FFFC0
1FFFC0
1FFFC0
E00038
E00038
E00038
E00000
E00000
E00000
1FFFC0
1FFFC0
1FFFC0
000038
000038
000038
E00038
E00038
E00038
1FFFC0
1FFFC0
1FFFC0
000000
000000
000000
ENDCHAR
STARTCHAR 54
ENCODING 84
SWIDTH 2880 0
DWIDTH 24 0
BBX 24 24 0 0
BITMAP
FFFFF8
FFFFF8
FFFFF8
007000
007000
007000
007000
007000
007000
007000
007000
007000
007000
007000
007000
007000
007000
007000
007000
007000
007000
000000
000000
000000
ENDCHAR
STARTCHAR 55
ENCODING 85
SWIDTH 2880 0
DWIDTH 24 0
BBX 24 24 0 0
BITMAP
E00038
E00038
E00038
E00038
E00038
E00038
E00038
E00038
E00038
E00038
E00038
E00038
E00038
E00038
E00038
E00038
E00038
E00038
1FFFC0
1FFFC0
1FFFC0
000000
000000
000000
ENDCHAR
STARTCHAR 56
ENCODING 86
SWIDTH 2880 0
DWIDTH 24 0
BBX 24 24 0 0
BITMAP
E00038
E00038
E00038
E00038
E00038
E00038
1C01C0
1C01C0
1C01C0
1C01C0
1C01C0
1C01C0
038E00
038E00
038E00
038E00
038E00
038E00
007000
007000
007000
000000
000000
000000
ENDCHAR
STARTCHAR 57
ENCODING 87
SWIDTH 2880 0
DWIDTH 24 0
BBX 24 24 0 0
BITMAP
E00038
E00038
E00038
E00038
E00038
E00038
E00038
E00038
E00038
E07038
E07038
E07038
E38E38
E38E38
E38E38
FC01F8
FC01F8
FC01F8
E00038
E00038
E00038
000000
000000
000000
ENDCHAR
STARTCHAR 58
ENCODING 88
SWIDTH 2880 0
DWIDTH 24 0
BBX 24 24 0 0
BITMAP
E00038
E00038
E00038
1C01C0
1C01C0
1C01C0
038E00
038E00
038E00
007000
007000
007000
038E00
038E00
038E00
1C01C0
1C01C0
1C01C0
E00038
E00038
E00038
000000
000000
000000
ENDCHAR
STARTCHAR 59
ENCODING 89
SWIDTH 2880 0
DWIDTH 24 0
BBX 24 24 0 0
BITMAP
E00038
E00038
E00038
E00038
E00038
E00038
1C01C0
1C01C0
1C01C0
038E00
038E00
038E00
007000
007000
007000
007000
007000
007000
007000
007000
007000
000000
000000
000000
ENDCHAR
STARTCHAR 5a
ENCODING 90
SWIDTH 2880 0
DWIDTH 24 0
BBX 24 24 0 0
BITMAP
FFFFF8
FFFFF8
FFFFF8
0001C0
0001C0
0001C0
000E00
000E00
000E00
007000
007000
007000
038000
038000
038000
1C0000
1C0000
1C0000
FFFFF8
FFFFF8
FFFFF8
000000
000000
000000
ENDCHAR
STARTCHAR 5b
ENCODING 91
SWIDTH 2880 0
DWIDTH 24 0
BBX 24 24 0 0
BITMAP
03FE00
03FE00
03FE00
038000
038000
038000
038000
038000
038000
038000
038000
038000
038000
038000
038000
038000
038000
038000
03FE00
03FE00
03FE00
000000
000000
000000
ENDCHAR
STARTCHAR 5c
ENCODING 92
SWIDTH 2880 0
DWIDTH 24 0
BBX 24 24 0 0
BITMAP
000000
000000
000000
1C0000
1C0000
1C0000
038000
038000
038000
007000
007000
007000
000E00
000E00
000E00
0001C0
0001C0
0001C0
000038
000038
000038
000000
000000
000000
ENDCHAR
STARTCHAR 5d
ENCODING 93
SWIDTH 2880 0
DWIDTH 24 0
BBX 24 24 0 0
BITMAP
03FE00
03FE00
03FE00
000E00
000E00
000E00
000E00
000E00
000E00
000E00
000E00
000E00
000E00
000E00
000E00
000E00
000E00
000E00
03FE00
03FE00
03FE00
000000
000000
000000
ENDCHAR
STARTCHAR 5f
ENCODING 95
SWIDTH 2880 0
DWIDTH 24 0
BBX 24 24 0 0
BITMAP
000000
000000
000000
000000
000000
000000
000000
000000
000000
000000
000000
000000
000000
000000
000000
000000
000000
000000
000000
000000
000000
FFFFFF
FFFFFF
FFFFFF
ENDCHAR
STARTCHAR 61
ENCODING 97
SWIDTH 2880 0
DWIDTH 24 0
BBX 24 24 0 0
BITMAP
000000
000000
000000
000000
000000
000000
1FFFC0
1FFFC0
1FFFC0
000038
000038
000038
1FFFF8
1FFFF8
1FFFF8
E00038
E00038
E00038
1FFFF8
1FFFF8
1FFFF8
000000
000000
000000
ENDCHAR
STARTCHAR 62
ENCODING 98
SWIDTH 2880 0
DWIDTH 24 0
BBX 24 24 0 0
BITMAP
E00000
E00000
E00000
E00000
E00000
E00000
E00000
E00000
E00000
FFFFC0
FFFFC0
FFFFC0
E00038
E00038
E00038
E00038
E00038
E00038
FFFFC0
FFFFC0
FFFFC0
000000
000000
000000
ENDCHAR
STARTCHAR 63
ENCODING 99
SWIDTH 2880 0
DWIDTH 24 0
BBX 24 24 0 0
BITMAP
000000
000000
000000
000000
000000
000000
000000
000000
000000
1FFFF8
1FFFF8
1FFFF8
E00000
E00000
E00000
E00000
E00000
E00000
1FFFF8
1FFFF8
1FFFF8
000000
000000
000000
ENDCHAR
STARTCHAR 64
ENCODING 100
SWIDTH 2880 0
DWIDTH 24 0
BBX 24 24 0 0
BITMAP
000038
000038
000038
000038
000038
000038
000038
000038
000038
1FFFF8
1FFFF8
1FFFF8
E00038
E00038
E00038
E00038
E00038
E00038
1FFFF8
1FFFF8
1FFFF8
000000
000000
000000
ENDCHAR
STARTCHAR 65
ENCODING 101
SWIDTH 2880 0
DWIDTH 24 0
BBX 24 24 0 0
BITMAP
000000
000000
000000
000000
000000
000000
1FFFC0
1FFFC0
1FFFC0
E00038
E00038
E00038
FFFFF8
FFFFF8
FFFFF8
E00000
E00000
E00000
1FFFC0
1FFFC0
1FFFC0
000000
000000
000000
ENDCHAR
STARTCHAR 66
ENCODING 102
SWIDTH 2880 0
DWIDTH 24 0
BBX 24 24 0 0
BITMAP
000FF8
000FF8
000FF8
007000
007000
007000
007000
007000
007000
FFFFF8
FFFFF8
FFFFF8
007000
007000
007000
007000
007000
007000
007000
007000
007000
000000
000000
000000
ENDCHAR
STARTCHAR 67
ENCODING 103
SWIDTH 2880 0
DWIDTH 24 0
BBX 24 24 0 0
BITMAP
000000
000000
000000
000000
000000
000000
1FFFF8
1FFFF8
1FFFF8
E00038
E00038
E00038
E00038
E00038
E00038
1FFFF8
1FFFF8
1FFFF8
000038
000038
000038
1FFFC0
1FFFC0
1FFFC0
ENDCHAR
STARTCHAR 68
ENCODING 104
SWIDTH 2880 0
DWIDTH 24 0
BBX 24 24 0 0
BITMAP
E00000
E00000
E00000
E00000
E00000
E00000
E00000
E00000
E00000
FFFFC0
FFFFC0
FFFFC0
E00038
E00038
E00038
E00038
E00038
E00038
E00038
E00038
E00038
000000
000000
000000
ENDCHAR
STARTCHAR 69
ENCODING 105
SWIDTH 2880 0
DWIDTH 24 0
BBX 24 24 0 0
BITMAP
007000
007000
007000
000000
000000
000000
000000
000000
000000
007000
007000
007000
007000
007000
007000
007000
007000
007000
007000
007000
007000
000000
000000
000000
ENDCHAR
STARTCHAR 6a
ENCODING 106
SWIDTH 2880 0
DWIDTH 24 0
BBX 24 24 0 0
BITMAP
000038
000038
000038
000000
000000
000000
000038
000038
000038
000038
000038
000038
000038
000038
000038
000038
000038
000038
E00038
E00038
E00038
1FFFC0
1FFFC0
1FFFC0
ENDCHAR
STARTCHAR 6b
ENCODING 107
SWIDTH 2880 0
DWIDTH 24 0
BBX 24 24 0 0
BITMAP
E00000
E00000
E00000
E00000
E00000
E00000
E001C0
E001C0
E001C0
E00E00
E00E00
E00E00
FFF000
FFF000
FFF000
E00E00
E00E00
E00E00
E001C0
E001C0
E001C0
000000
000000
000000
ENDCHAR
STARTCHAR 6c
ENCODING 108
SWIDTH 2880 0
DWIDTH 24 0
BBX 24 24 0 0
BITMAP
03F000
03F000
03F000
007000
007000
007000
007000
007000
007000
007000
007000
007000
007000
007000
007000
007000
007000
007000
1FFFC0
1FFFC0
1FFFC0
000000
000000
000000
ENDCHAR
STARTCHAR 6d
ENCODING 109
SWIDTH 2880 0
DWIDTH 24 0
BBX 24 24 0 0
BITMAP
000000
000000
000000
000000
000000
000000
FF8FC0
FF8FC0
FF8FC0
E07038
E07038
E07038
E07038
E07038
E07038
E07038
E07038
E07038
E07038
E07038
E07038
000000
000000
000000
ENDCHAR
STARTCHAR 6e
ENCODING 110
SWIDTH 2880 0
DWIDTH 24 0
BBX 24 24 0 0
BITMAP
000000
000000
000000
000000
000000
000000
E3FFC0
E3FFC0
E3FFC0
FC0038
FC0038
FC0038
E00038
E00038
E00038
E00038
E00038
E00038
E00038
E00038
E00038
000000
000000
000000
ENDCHAR
STARTCHAR 6f
ENCODING 111
SWIDTH 2880 0
DWIDTH 24 0
BBX 24 24 0 0
BITMAP
000000
000000
000000
000000
000000
000000
1FFFC0
1FFFC0
1FFFC0
E00038
E00038
E00038
E00038
E00038
E00038
E00038
E00038
E00038
1FFFC0
1FFFC0
1FFFC0
000000
000000
000000
ENDCHAR
STARTCHAR 70
ENCODING 112
SWIDTH 2880 0
DWIDTH 24 0
BBX 24 24 0 0
BITMAP
000000
000000
000000
000000
000000
000000
FFFFC0
FFFFC0
FFFFC0
E00038
E00038
E00038
E00038
E00038
E00038
FFFFC0
FFFFC0
FFFFC0
E00000
E00000
E00000
E00000
E00000
E00000
ENDCHAR
STARTCHAR 71
ENCODING 113
SWIDTH 2880 0
DWIDTH 24 0
BBX 24 24 0 0
BITMAP
000000
000000
000000
000000
000000
000000
1FFFF8
1FFFF8
1FFFF8
E00038
E00038
E00038
E00038
E00038
E00038
1FFFF8
1FFFF8
1FFFF8
000038
000038
000038
000038
000038
000038
ENDCHAR
STARTCHAR 72
ENCODING 114
SWIDTH 2880 0
DWIDTH 24 0
BBX 24 24 0 0
BITMAP
000000
000000
000000
000000
000000
000000
1C0FF8
1C0FF8
1C0FF8
1C7000
1C7000
1C7000
1F8000
1F8000
1F8000
1C0000
1C0000
1C0000
1C0000
1C0000
1C0000
000000
000000
000000
ENDCHAR
STARTCHAR 73
ENCODING 115
SWIDTH 2880 0
DWIDTH 24 0
BBX 24 24 0 0
BITMAP
000000
000000
000000
000000
000000
000000
1FFFF8
1FFFF8
1FFFF8
E00000
E00000
E00000
1FFFC0
1FFFC0
1FFFC0
000038
000038
000038
FFFFC0
FFFFC0
FFFFC0
000000
000000
000000
ENDCHAR
STARTCHAR 74
ENCODING 116
SWIDTH 2880 0
DWIDTH 24 0
BBX 24 24 0 0
BITMAP
038000
038000
038000
038000
038000
038000
FFFFC0
FFFFC0
FFFFC0
038000
038000
038000
038000
038000
038000
038000
038000
038000
007FF8
007FF8
007FF8
000000
000000
000000
ENDCHAR
STARTCHAR 75
ENCODING 117
SWIDTH 2880 0
DWIDTH 24 0
BBX 24 24 0 0
BITMAP
000000
000000
000000
000000
000000
000000
E00038
E00038
E00038
E00038
E00038
E00038
E00038
E00038
E00038
E00038
E00038
E00038
1FFFC0
1FFFC0
1FFFC0
000000
000000
000000
ENDCHAR
STARTCHAR 76
ENCODING 118
SWIDTH 2880 0
DWIDTH 24 0
BBX 24 24 0 0
BITMAP
000000
000000
000000
000000
000000
000000
E00038
E00038
E00038
E00038
E00038
E00038
1C01C0
1C01C0
1C01C0
038E00
038E00
038E00
007000
007000
007000
000000
000000
000000
ENDCHAR
STARTCHAR 77
ENCODING 119
SWIDTH 2880 0
DWIDTH 24 0
BBX 24 24 0 0
BITMAP
000000
000000
000000
000000
000000
000000
E00038
E00038
E00038
E00038
E00038
E00038
E07038
E07038
E07038
E38E38
E38E38
E38E38
1C01C0
1C01C0
1C01C0
000000
000000
000000
ENDCHAR
STARTCHAR 78
ENCODING 120
SWIDTH 2880 0
DWIDTH 24 0
BBX 24 24 0 0
BITMAP
000000
000000
000000
000000
000000
000000
E00038
E00038
E00038
1C01C0
1C01C0
1C01C0
03FE00
03FE00
03FE00
1C01C0
1C01C0
1C01C0
E00038
E00038
E00038
000000
000000
000000
ENDCHAR
STARTCHAR 79
ENCODING 121
SWIDTH 2880 0
DWIDTH 24 0
BBX 24 24 0 0
BITMAP
000000
000000
000000
000000
000000
000000
E00038
E00038
E00038
E00038
E00038
E00038
E00038
E00038
E00038
1FFFF8
1FFFF8
1FFFF8
000038
000038
000038
1FFFC0
1FFFC0
1FFFC0
ENDCHAR
STARTCHAR 7a
ENCODING 122
SWIDTH 2880 0
DWIDTH 24 0
BBX 24 24 0 0
BITMAP
000000
000000
000000
000000
000000
000000
FFFFF8
FFFFF8
FFFFF8
0001C0
0001C0
0001C0
03FE00
03FE00
03FE00
1C0000
1C0000
1C0000
FFFFF8
FFFFF8
FFFFF8
000000
000000
000000
ENDCHAR
STARTCHAR 7c
ENCODING 124
SWIDTH 2880 0
DWIDTH 24 0
BBX 24 24 0 0
BITMAP
000E00
000E00
000E00
000E00
000E00
000E00
000E00
000E00
000E00
000E00
000E00
000E00
000E00
000E00
000E00
000E00
000E00
000E00
000E00
000E00
000E00
000E00
000E00
000E00
ENDCHAR
STARTCHAR 7e
ENCODING 126
SWIDTH 2880 0
DWIDTH 24 0
BBX 24 24 0 0
BITMAP
000000
000000
000000
000000
000000
000000
1F8000
1F8000
1F8000
E07000
E07000
E07000
000E07
000E07
000E07
0001F8
0001F8
0001F8
000000
000000
000000
000000
000000
000000
ENDCHAR
STARTCHAR d7
ENCODING 215
SWIDTH 2880 0
DWIDTH 24 0
BBX 24 24 0 0
BITMAP
E00007
E00007
E00007
1C0038
1C0038
1C0038
0381C0
0381C0
0381C0
007E00
007E00
007E00
007E00
007E00
007E00
0381C0
0381C0
0381C0
1C0038
1C0038
1C0038
E00007
E00007
E00007
ENDCHAR
STARTCHAR 3c0
ENCODING 960
SWIDTH 2880 0
DWIDTH 24 0
BBX 24 24 0 0
BITMAP
000000
000000
000000
000038
000038
000038
000038
000038
000038
1FFFC0
1FFFC0
1FFFC0
E38E00
E38E00
E38E00
E38E00
E38E00
E38E00
038E00
038E00
038E00
000000
000000
000000
ENDCHAR
STARTCHAR 2026
ENCODING 8230
SWIDTH 2880 0
DWIDTH 24 0
BBX 24 24 0 0
BITMAP
000000
000000
000000
000000
000000
000000
000000
000000
000000
1F8000
1F8000
1F8000
E07000
E07000
E07000
E07000
E07000
E07000
1F8000
1F8000
1F8000
000000
000000
000000
ENDCHAR
STARTCHAR 2190
ENCODING 8592
SWIDTH 2880 0
DWIDTH 24 0
BBX 24 24 0 0
BITMAP
000000
000000
000000
000E00
000E00
000E00
007E00
007E00
007E00
03FE00
03FE00
03FE00
1FFFFF
1FFFFF
1FFFFF
03FE00
03FE00
03FE00
007E00
007E00
007E00
000E00
000E00
000E00
ENDCHAR
STARTCHAR 2191
ENCODING 8593
SWIDTH 2880 0
DWIDTH 24 0
BBX 24 24 0 0
BITMAP
000000
000000
000000
000E00
000E00
000E00
007FC0
007FC0
007FC0
03FFF8
03FFF8
03FFF8
1FFFFF
1FFFFF
1FFFFF
000E00
000E00
000E00
000E00
000E00
000E00
000E00
000E00
000E00
ENDCHAR
STARTCHAR 2192
ENCODING 8594
SWIDTH 2880 0
DWIDTH 24 0
BBX 24 24 0 0
BITMAP
000000
000000
000000
007000
007000
007000
007E00
007E00
007E00
007FC0
007FC0
007FC0
FFFFF8
FFFFF8
FFFFF8
007FC0
007FC0
007FC0
007E00
007E00
007E00
007000
007000
007000
ENDCHAR
STARTCHAR 2193
ENCODING 8595
SWIDTH 2880 0
DWIDTH 24 0
BBX 24 24 0 0
BITMAP
000E00
000E00
000E00
000E00
000E00
000E00
000E00
000E00
000E00
1FFFFF
1FFFFF
1FFFFF
03FFF8
03FFF8
03FFF8
007FC0
007FC0
007FC0
000E00
000E00
000E00
000000
000000
000000
ENDCHAR
STARTCHAR 21bf
ENCODING 8639
SWIDTH 2880 0
DWIDTH 24 0
BBX 24 24 0 0
BITMAP
000038
000038
000038
000038
000038
000038
000038
000038
000038
000038
000038
000038
000038
000038
000038
000038
000038
000038
0001FF
0001FF
0001FF
000038
000038
000038
ENDCHAR
STARTCHAR 21c0
ENCODING 8640
SWIDTH 2880 0
DWIDTH 24 0
BBX 24 24 0 0
BITMAP
000000
000000
000000
000000
000000
000000
000000
000000
000000
000000
000000
000000
000000
000000
000000
000038
000038
000038
FFFFFF
FFFFFF
FFFFFF
000038
000038
000038
ENDCHAR
STARTCHAR 21d6
ENCODING 8662
SWIDTH 2880 0
DWIDTH 24 0
BBX 24 24 0 0
BITMAP
038000
038000
038000
007000
007000
007000
E00E00
E00E00
E00E00
1C01C0
1C01C0
1C01C0
038038
038038
038038
007007
007007
007007
000E00
000E00
000E00
0001C0
0001C0
0001C0
ENDCHAR
STARTCHAR 21d7
ENCODING 8663
SWIDTH 2880 0
DWIDTH 24 0
BBX 24 24 0 0
BITMAP
0001C0
0001C0
0001C0
000E00
000E00
000E00
007007
007007
007007
038038
038038
038038
1C01C0
1C01C0
1C01C0
E00E00
E00E00
E00E00
007000
007000
007000
038000
038000
038000
ENDCHAR
STARTCHAR 21e6
ENCODING 8678
SWIDTH 2880 0
DWIDTH 24 0
BBX 24 24 0 0
BITMAP
FFFFFF
FFFFFF
FFFFFF
FFF1FF
FFF1FF
FFF1FF
FF81FF
FF81FF
FF81FF
FC01FF
FC01FF
FC01FF
E00000
E00000
E00000
FC01FF
FC01FF
FC01FF
FF81FF
FF81FF
FF81FF
FFF1FF
FFF1FF
FFF1FF
ENDCHAR
STARTCHAR 21e7
ENCODING 8679
SWIDTH 2880 0
DWIDTH 24 0
BBX 24 24 0 0
BITMAP
FFFFFF
FFFFFF
FFFFFF
FFF1FF
FFF1FF
FFF1FF
FF803F
FF803F
FF803F
FC0007
FC0007
FC0007
E00000
E00000
E00000
FFF1FF
FFF1FF
FFF1FF
FFF1FF
FFF1FF
FFF1FF
FFF1FF
FFF1FF
FFF1FF
ENDCHAR
STARTCHAR 21e8
ENCODING 8680
SWIDTH 2880 0
DWIDTH 24 0
BBX 24 24 0 0
BITMAP
FFFFFF
FFFFFF
FFFFFF
FF8FFF
FF8FFF
FF8FFF
FF81FF
FF81FF
FF81FF
FF803F
FF803F
FF803F
000007
000007
000007
FF803F
FF803F
FF803F
FF81FF
FF81FF
FF81FF
FF8FFF
FF8FFF
FF8FFF
ENDCHAR
STARTCHAR 21e9
ENCODING 8681
SWIDTH 2880 0
DWIDTH 24 0
BBX 24 24 0 0
BITMAP
FFF1FF
FFF1FF
FFF1FF
FFF1FF
FFF1FF
FFF1FF
FFF1FF
FFF1FF
FFF1FF
E00000
E00000
E00000
FC0007
FC0007
FC0007
FF803F
FF803F
FF803F
FFF1FF
FFF1FF
FFF1FF
FFFFFF
FFFFFF
FFFFFF
ENDCHAR
STARTCHAR 22a5
ENCODING 8869
SWIDTH 2880 0
DWIDTH 24 0
BBX 24 24 0 0
BITMAP
000038
000038
000038
000038
000038
000038
000038
000038
000038
000038
000038
000038
000038
000038
000038
000038
000038
000038
FFFFFF
FFFFFF
FFFFFF
000038
000038
000038
ENDCHAR
STARTCHAR 2460
ENCODING 9312
SWIDTH 2880 0
DWIDTH 24 0
BBX 24 24 0 0
BITMAP
FFF000
FFF000
FFF000
FFF000
FFF000
FFF000
FFF000
FFF000
FFF000
FFF000
FFF000
FFF000
000000
000000
000000
000000
000000
000000
000000
000000
000000
000000
000000
000000
ENDCHAR
STARTCHAR 2461
ENCODING 9313
SWIDTH 2880 0
DWIDTH 24 0
BBX 24 24 0 0
BITMAP
000FFF
000FFF
000FFF
000FFF
000FFF
000FFF
000FFF
000FFF
000FFF
000FFF
000FFF
000FFF
000000
000000
000000
000000
000000
000000
000000
000000
000000
000000
000000
000000
ENDCHAR
STARTCHAR 2462
ENCODING 9314
SWIDTH 2880 0
DWIDTH 24 0
BBX 24 24 0 0
BITMAP
FFFFFF
FFFFFF
FFFFFF
FFFFFF
FFFFFF
FFFFFF
FFFFFF
FFFFFF
FFFFFF
FFFFFF
FFFFFF
FFFFFF
000000
000000
000000
000000
000000
000000
000000
000000
000000
000000
000000
000000
ENDCHAR
STARTCHAR 2463
ENCODING 9315
SWIDTH 2880 0
DWIDTH 24 0
BBX 24 24 0 0
BITMAP
000000
000000
000000
000000
000000
000000
000000
000000
000000
000000
000000
000000
FFF000
FFF000
FFF000
FFF000
FFF000
FFF000
FFF000
FFF000
FFF000
FFF000
FFF000
FFF000
ENDCHAR
STARTCHAR 2464
ENCODING 9316
SWIDTH 2880 0
DWIDTH 24 0
BBX 24 24 0 0
BITMAP
FFF000
FFF000
FFF000
FFF000
FFF000
FFF000
FFF000
FFF000
FFF000
FFF000
FFF000
FFF000
FFF000
FFF000
FFF000
FFF000
FFF000
FFF000
FFF000
FFF000
FFF000
FFF000
FFF000
FFF000
ENDCHAR
STARTCHAR 2465
ENCODING 9317
SWIDTH 2880 0
DWIDTH 24 0
BBX 24 24 0 0
BITMAP
000FFF
000FFF
000FFF
000FFF
000FFF
000FFF
000FFF
000FFF
000FFF
000FFF
000FFF
000FFF
FFF000
FFF000
FFF000
FFF000
FFF000
FFF000
FFF000
FFF000
FFF000
FFF000
FFF000
FFF000
ENDCHAR
STARTCHAR 2466
ENCODING 9318
SWIDTH 2880 0
DWIDTH 24 0
BBX 24 24 0 0
BITMAP
FFFFFF
FFFFFF
FFFFFF
FFFFFF
FFFFFF
FFFFFF
FFFFFF
FFFFFF
FFFFFF
FFFFFF
FFFFFF
FFFFFF
FFF000
FFF000
FFF000
FFF000
FFF000
FFF000
FFF000
FFF000
FFF000
FFF000
FFF000
FFF000
ENDCHAR
STARTCHAR 2467
ENCODING 9319
SWIDTH 2880 0
DWIDTH 24 0
BBX 24 24 0 0
BITMAP
000000
000000
000000
000000
000000
000000
000000
000000
000000
000000
000000
000000
000FFF
000FFF
000FFF
000FFF
000FFF
000FFF
000FFF
000FFF
000FFF
000FFF
000FFF
000FFF
ENDCHAR
STARTCHAR 2468
ENCODING 9320
SWIDTH 2880 0
DWIDTH 24 0
BBX 24 24 0 0
BITMAP
FFF000
FFF000
FFF000
FFF000
FFF000
FFF000
FFF000
FFF000
FFF000
FFF000
FFF000
FFF000
000FFF
000FFF
000FFF
000FFF
000FFF
000FFF
000FFF
000FFF
000FFF
000FFF
000FFF
000FFF
ENDCHAR
STARTCHAR 2469
ENCODING 9321
SWIDTH 2880 0
DWIDTH 24 0
BBX 24 24 0 0
BITMAP
000FFF
000FFF
000FFF
000FFF
000FFF
000FFF
000FFF
000FFF
000FFF
000FFF
000FFF
000FFF
000FFF
000FFF
000FFF
000FFF
000FFF
000FFF
000FFF
000FFF
000FFF
000FFF
000FFF
000FFF
ENDCHAR
STARTCHAR 246a
ENCODING 9322
SWIDTH 2880 0
DWIDTH 24 0
BBX 24 24 0 0
BITMAP
FFFFFF
FFFFFF
FFFFFF
FFFFFF
FFFFFF
FFFFFF
FFFFFF
FFFFFF
FFFFFF
FFFFFF
FFFFFF
FFFFFF
000FFF
000FFF
000FFF
000FFF
000FFF
000FFF
000FFF
000FFF
000FFF
000FFF
000FFF
000FFF
ENDCHAR
STARTCHAR 246b
ENCODING 9323
SWIDTH 2880 0
DWIDTH 24 0
BBX 24 24 0 0
BITMAP
000000
000000
000000
000000
000000
000000
000000
000000
000000
000000
000000
000000
FFFFFF
FFFFFF
FFFFFF
FFFFFF
FFFFFF
FFFFFF
FFFFFF
FFFFFF
FFFFFF
FFFFFF
FFFFFF
FFFFFF
ENDCHAR
STARTCHAR 246c
ENCODING 9324
SWIDTH 2880 0
DWIDTH 24 0
BBX 24 24 0 0
BITMAP
FFF000
FFF000
FFF000
FFF000
FFF000
FFF000
FFF000
FFF000
FFF000
FFF000
FFF000
FFF000
FFFFFF
FFFFFF
FFFFFF
FFFFFF
FFFFFF
FFFFFF
FFFFFF
FFFFFF
FFFFFF
FFFFFF
FFFFFF
FFFFFF
ENDCHAR
STARTCHAR 246d
ENCODING 9325
SWIDTH 2880 0
DWIDTH 24 0
BBX 24 24 0 0
BITMAP
000FFF
000FFF
000FFF
000FFF
000FFF
000FFF
000FFF
000FFF
000FFF
000FFF
000FFF
000FFF
FFFFFF
FFFFFF
FFFFFF
FFFFFF
FFFFFF
FFFFFF
FFFFFF
FFFFFF
FFFFFF
FFFFFF
FFFFFF
FFFFFF
ENDCHAR
STARTCHAR 246e
ENCODING 9326
SWIDTH 2880 0
DWIDTH 24 0
BBX 24 24 0 0
BITMAP
FFFFFF
FFFFFF
FFFFFF
FFFFFF
FFFFFF
FFFFFF
FFFFFF
FFFFFF
FFFFFF
FFFFFF
FFFFFF
FFFFFF
FFFFFF
FFFFFF
FFFFFF
FFFFFF
FFFFFF
FFFFFF
FFFFFF
FFFFFF
FFFFFF
FFFFFF
FFFFFF
FFFFFF
ENDCHAR
STARTCHAR 24b8
ENCODING 9400
SWIDTH 2880 0
DWIDTH 24 0
BBX 24 24 0 0
BITMAP
E0003F
E0003F
E0003F
1FFFC7
1FFFC7
1FFFC7
1FFFFF
1FFFFF
1FFFFF
1FFFFF
1FFFFF
1FFFFF
1FFFFF
1FFFFF
1FFFFF
1FFFC7
1FFFC7
1FFFC7
E0003F
E0003F
E0003F
FFFFFF
FFFFFF
FFFFFF
ENDCHAR
STARTCHAR 24bd
ENCODING 9405
SWIDTH 2880 0
DWIDTH 24 0
BBX 24 24 0 0
BITMAP
1FFFC7
1FFFC7
1FFFC7
1FFFC7
1FFFC7
1FFFC7
1FFFC7
1FFFC7
1FFFC7
000007
000007
000007
1FFFC7
1FFFC7
1FFFC7
1FFFC7
1FFFC7
1FFFC7
1FFFC7
1FFFC7
1FFFC7
FFFFFF
FFFFFF
FFFFFF
ENDCHAR
STARTCHAR 2500
ENCODING 9472
SWIDTH 2880 0
DWIDTH 24 0
BBX 24 24 0 0
BITMAP
000000
000000
000000
000000
000000
000000
000000
000000
000000
000000
000000
000000
FFFFFF
FFFFFF
FFFFFF
000000
000000
000000
000000
000000
000000
000000
000000
000000
ENDCHAR
STARTCHAR 2503
ENCODING 9475
SWIDTH 2880 0
DWIDTH 24 0
BBX 24 24 0 0
BITMAP
007000
007000
007000
007000
007000
007000
007000
007000
007000
007000
007000
007000
007000
007000
007000
007000
007000
007000
007000
007000
007000
007000
007000
007000
ENDCHAR
STARTCHAR 2506
ENCODING 9478
SWIDTH 2880 0
DWIDTH 24 0
BBX 24 24 0 0
BITMAP
000038
000038
000038
000038
000038
000038
000038
000038
000038
000038
000038
000038
000038
000038
000038
000038
000038
000038
000038
000038
000038
000038
000038
000038
ENDCHAR
STARTCHAR 2507
ENCODING 9479
SWIDTH 2880 0
DWIDTH 24 0
BBX 24 24 0 0
BITMAP
1C0000
1C0000
1C0000
1C0000
1C0000
1C0000
1C0000
1C0000
1C0000
1C0000
1C0000
1C0000
1C0000
1C0000
1C0000
1C0000
1C0000
1C0000
1C0000
1C0000
1C0000
1C0000
1C0000
1C0000
ENDCHAR
STARTCHAR 250a
ENCODING 9482
SWIDTH 2880 0
DWIDTH 24 0
BBX 24 24 0 0
BITMAP
0001C0
0001C0
0001C0
0001C0
0001C0
0001C0
0001C0
0001C0
0001C0
0001C0
0001C0
0001C0
0001C0
0001C0
0001C0
0001C0
0001C0
0001C0
0001C0
0001C0
0001C0
0001C0
0001C0
0001C0
ENDCHAR
STARTCHAR 250b
ENCODING 9483
SWIDTH 2880 0
DWIDTH 24 0
BBX 24 24 0 0
BITMAP
038000
038000
038000
038000
038000
038000
038000
038000
038000
038000
038000
038000
038000
038000
038000
038000
038000
038000
038000
038000
038000
038000
038000
038000
ENDCHAR
STARTCHAR 250c
ENCODING 9484
SWIDTH 2880 0
DWIDTH 24 0
BBX 24 24 0 0
BITMAP
000000
000000
000000
000000
000000
000000
000000
000000
000000
000000
000000
000000
000FFF
000FFF
000FFF
000E00
000E00
000E00
000E00
000E00
000E00
000E00
000E00
000E00
ENDCHAR
STARTCHAR 250f
ENCODING 9487
SWIDTH 2880 0
DWIDTH 24 0
BBX 24 24 0 0
BITMAP
FFFFFF
FFFFFF
FFFFFF
E00000
E00000
E00000
E00000
E00000
E00000
E00000
E00000
E00000
E00000
E00000
E00000
E00000
E00000
E00000
E00000
E00000
E00000
E00000
E00000
E00000
ENDCHAR
STARTCHAR 2510
ENCODING 9488
SWIDTH 2880 0
DWIDTH 24 0
BBX 24 24 0 0
BITMAP
000000
000000
000000
000000
000000
000000
000000
000000
000000
000000
000000
000000
FFFE00
FFFE00
FFFE00
000E00
000E00
000E00
000E00
000E00
000E00
000E00
000E00
000E00
ENDCHAR
STARTCHAR 2513
ENCODING 9491
SWIDTH 2880 0
DWIDTH 24 0
BBX 24 24 0 0
BITMAP
FFFFFF
FFFFFF
FFFFFF
000007
000007
000007
000007
000007
000007
000007
000007
000007
000007
000007
000007
000007
000007
000007
000007
000007
000007
000007
000007
000007
ENDCHAR
STARTCHAR 2514
ENCODING 9492
SWIDTH 2880 0
DWIDTH 24 0
BBX 24 24 0 0
BITMAP
000E00
000E00
000E00
000E00
000E00
000E00
000E00
000E00
000E00
000E00
000E00
000E00
000FFF
000FFF
000FFF
000000
000000
000000
000000
000000
000000
000000
000000
000000
ENDCHAR
STARTCHAR 2517
ENCODING 9495
SWIDTH 2880 0
DWIDTH 24 0
BBX 24 24 0 0
BITMAP
E00000
E00000
E00000
E00000
E00000
E00000
E00000
E00000
E00000
E00000
E00000
E00000
E00000
E00000
E00000
E00000
E00000
E00000
E00000
E00000
E00000
FFFFFF
FFFFFF
FFFFFF
ENDCHAR
STARTCHAR 2518
ENCODING 9496
SWIDTH 2880 0
DWIDTH 24 0
BBX 24 24 0 0
BITMAP
000E00
000E00
000E00
000E00
000E00
000E00
000E00
000E00
000E00
000E00
000E00
000E00
FFFE00
FFFE00
FFFE00
000000
000000
000000
000000
000000
000000
000000
000000
000000
ENDCHAR
STARTCHAR 251b
ENCODING 9499
SWIDTH 2880 0
DWIDTH 24 0
BBX 24 24 0 0
BITMAP
000007
000007
000007
000007
000007
000007
000007
000007
000007
000007
000007
000007
000007
000007
000007
000007
000007
000007
000007
000007
000007
FFFFFF
FFFFFF
FFFFFF
ENDCHAR
STARTCHAR 251c
ENCODING 9500
SWIDTH 2880 0
DWIDTH 24 0
BBX 24 24 0 0
BITMAP
000E00
000E00
000E00
000E00
000E00
000E00
000E00
000E00
000E00
000E00
000E00
000E00
000FFF
000FFF
000FFF
000E00
000E00
000E00
000E00
000E00
000E00
000E00
000E00
000E00
ENDCHAR
STARTCHAR 2524
ENCODING 9508
SWIDTH 2880 0
DWIDTH 24 0
BBX 24 24 0 0
BITMAP
000E00
000E00
000E00
000E00
000E00
000E00
000E00
000E00
000E00
000E00
000E00
000E00
FFFE00
FFFE00
FFFE00
000E00
000E00
000E00
000E00
000E00
000E00
000E00
000E00
000E00
ENDCHAR
STARTCHAR 252c
ENCODING 9516
SWIDTH 2880 0
DWIDTH 24 0
BBX 24 24 0 0
BITMAP
000000
000000
000000
000000
000000
000000
000000
000000
000000
000000
000000
000000
FFFFFF
FFFFFF
FFFFFF
000E00
000E00
000E00
000E00
000E00
000E00
000E00
000E00
000E00
ENDCHAR
STARTCHAR 2534
ENCODING 9524
SWIDTH 2880 0
DWIDTH 24 0
BBX 24 24 0 0
BITMAP
000E00
000E00
000E00
000E00
000E00
000E00
000E00
000E00
000E00
000E00
000E00
000E00
FFFFFF
FFFFFF
FFFFFF
000000
000000
000000
000000
000000
000000
000000
000000
000000
ENDCHAR
STARTCHAR 253c
ENCODING 9532
SWIDTH 2880 0
DWIDTH 24 0
BBX 24 24 0 0
BITMAP
000E00
000E00
000E00
000E00
000E00
000E00
000E00
000E00
000E00
000E00
000E00
000E00
FFFFFF
FFFFFF
FFFFFF
000E00
000E00
000E00
000E00
000E00
000E00
000E00
000E00
000E00
ENDCHAR
STARTCHAR 256d
ENCODING 9581
SWIDTH 2880 0
DWIDTH 24 0
BBX 24 24 0 0
BITMAP
000000
000000
000000
000000
000000
000000
000000
000000
000000
000000
000000
000000
00003F
00003F
00003F
0001C0
0001C0
0001C0
000E00
000E00
000E00
000E00
000E00
000E00
ENDCHAR
STARTCHAR 256e
ENCODING 9582
SWIDTH 2880 0
DWIDTH 24 0
BBX 24 24 0 0
BITMAP
000000
000000
000000
000000
000000
000000
000000
000000
000000
000000
000000
000000
FF8000
FF8000
FF8000
007000
007000
007000
000E00
000E00
000E00
000E00
000E00
000E00
ENDCHAR
STARTCHAR 256f
ENCODING 9583
SWIDTH 2880 0
DWIDTH 24 0
BBX 24 24 0 0
BITMAP
000E00
000E00
000E00
000E00
000E00
000E00
000E00
000E00
000E00
007000
007000
007000
FF8000
FF8000
FF8000
000000
000000
000000
000000
000000
000000
000000
000000
000000
ENDCHAR
STARTCHAR 2570
ENCODING 9584
SWIDTH 2880 0
DWIDTH 24 0
BBX 24 24 0 0
BITMAP
000E00
000E00
000E00
000E00
000E00
000E00
000E00
000E00
000E00
0001C0
0001C0
0001C0
00003F
00003F
00003F
000000
000000
000000
000000
000000
000000
000000
000000
000000
ENDCHAR
STARTCHAR 2580
ENCODING 9600
SWIDTH 2880 0
DWIDTH 24 0
BBX 24 24 0 0
BITMAP
FFFFFF
FFFFFF
FFFFFF
FFFFFF
FFFFFF
FFFFFF
FFFFFF
FFFFFF
FFFFFF
FFFFFF
FFFFFF
FFFFFF
000000
000000
000000
000000
000000
000000
000000
000000
000000
000000
000000
000000
ENDCHAR
STARTCHAR 2582
ENCODING 9602
SWIDTH 2880 0
DWIDTH 24 0
BBX 24 24 0 0
BITMAP
000000
000000
000000
000000
000000
000000
000000
000000
000000
000000
000000
000000
000000
000000
000000
000000
000000
000000
FFFFFF
FFFFFF
FFFFFF
FFFFFF
FFFFFF
FFFFFF
ENDCHAR
STARTCHAR 2583
ENCODING 9603
SWIDTH 2880 0
DWIDTH 24 0
BBX 24 24 0 0
BITMAP
000000
000000
000000
000000
000000
000000
000000
000000
000000
000000
000000
000000
000000
000000
000000
FFFFFF
FFFFFF
FFFFFF
FFFFFF
FFFFFF
FFFFFF
FFFFFF
FFFFFF
FFFFFF
ENDCHAR
STARTCHAR 2584
ENCODING 9604
SWIDTH 2880 0
DWIDTH 24 0
BBX 24 24 0 0
BITMAP
000000
000000
000000
000000
000000
000000
000000
000000
000000
000000
000000
000000
FFFFFF
FFFFFF
FFFFFF
FFFFFF
FFFFFF
FFFFFF
FFFFFF
FFFFFF
FFFFFF
FFFFFF
FFFFFF
FFFFFF
ENDCHAR
STARTCHAR 258d
ENCODING 9613
SWIDTH 2880 0
DWIDTH 24 0
BBX 24 24 0 0
BITMAP
FFF000
FFF000
FFF000
FFF000
FFF000
FFF000
FFF000
FFF000
FFF000
FFF000
FFF000
FFF000
FFF000
FFF000
FFF000
FFF000
FFF000
FFF000
FFF000
FFF000
FFF000
FFF000
FFF000
FFF000
ENDCHAR
STARTCHAR 258e
ENCODING 9614
SWIDTH 2880 0
DWIDTH 24 0
BBX 24 24 0 0
BITMAP
FC0000
FC0000
FC0000
FC0000
FC0000
FC0000
FC0000
FC0000
FC0000
FC0000
FC0000
FC0000
FC0000
FC0000
FC0000
FC0000
FC0000
FC0000
FC0000
FC0000
FC0000
FC0000
FC0000
FC0000
ENDCHAR
STARTCHAR 258f
ENCODING 9615
SWIDTH 2880 0
DWIDTH 24 0
BBX 24 24 0 0
BITMAP
E00000
E00000
E00000
E00000
E00000
E00000
E00000
E00000
E00000
E00000
E00000
E00000
E00000
E00000
E00000
E00000
E00000
E00000
E00000
E00000
E00000
E00000
E00000
E00000
ENDCHAR
STARTCHAR 2590
ENCODING 9616
SWIDTH 2880 0
DWIDTH 24 0
BBX 24 24 0 0
BITMAP
000FFF
000FFF
000FFF
000FFF
000FFF
000FFF
000FFF
000FFF
000FFF
000FFF
000FFF
000FFF
000FFF
000FFF
000FFF
000FFF
000FFF
000FFF
000FFF
000FFF
000FFF
000FFF
000FFF
000FFF
ENDCHAR
STARTCHAR 2591
ENCODING 9617
SWIDTH 2880 0
DWIDTH 24 0
BBX 24 24 0 0
BITMAP
1C71C7
1C71C7
1C71C7
E38E38
E38E38
E38E38
1C71C7
1C71C7
1C71C7
E38E38
E38E38
E38E38
1C71C7
1C71C7
1C71C7
E38E38
E38E38
E38E38
1C71C7
1C71C7
1C71C7
E38E38
E38E38
E38E38
ENDCHAR
STARTCHAR 2592
ENCODING 9618
SWIDTH 2880 0
DWIDTH 24 0
BBX 24 24 0 0
BITMAP
E38E38
E38E38
E38E38
1C71C7
1C71C7
1C71C7
E38E38
E38E38
E38E38
1C71C7
1C71C7
1C71C7
E38E38
E38E38
E38E38
1C71C7
1C71C7
1C71C7
E38E38
E38E38
E38E38
1C71C7
1C71C7
1C71C7
ENDCHAR
STARTCHAR 2593
ENCODING 9619
SWIDTH 2880 0
DWIDTH 24 0
BBX 24 24 0 0
BITMAP
E38000
E38000
E38000
1C7000
1C7000
1C7000
E38000
E38000
E38000
1C7000
1C7000
1C7000
E38000
E38000
E38000
1C7000
1C7000
1C7000
E38000
E38000
E38000
1C7000
1C7000
1C7000
ENDCHAR
STARTCHAR 2595
ENCODING 9621
SWIDTH 2880 0
DWIDTH 24 0
BBX 24 24 0 0
BITMAP
000007
000007
000007
000007
000007
000007
000007
000007
000007
000007
000007
000007
000007
000007
000007
000007
000007
000007
000007
000007
000007
000007
000007
000007
ENDCHAR
STARTCHAR 259a
ENCODING 9626
SWIDTH 2880 0
DWIDTH 24 0
BBX 24 24 0 0
BITMAP
FFF000
FFF000
FFF000
FFF000
FFF000
FFF000
FFF000
FFF000
FFF000
FFF000
FFF000
FFF000
000FFF
000FFF
000FFF
000FFF
000FFF
000FFF
000FFF
000FFF
000FFF
000FFF
000FFF
000FFF
ENDCHAR
STARTCHAR 259e
ENCODING 9630
SWIDTH 2880 0
DWIDTH 24 0
BBX 24 24 0 0
BITMAP
000FFF
000FFF
000FFF
000FFF
000FFF
000FFF
000FFF
000FFF
000FFF
000FFF
000FFF
000FFF
FFF000
FFF000
FFF000
FFF000
FFF000
FFF000
FFF000
FFF000
FFF000
FFF000
FFF000
FFF000
ENDCHAR
STARTCHAR 25a0
ENCODING 9632
SWIDTH 2880 0
DWIDTH 24 0
BBX 24 24 0 0
BITMAP
FFFFFF
FFFFFF
FFFFFF
FFFFFF
FFFFFF
FFFFFF
FFFFFF
FFFFFF
FFFFFF
FFFFFF
FFFFFF
FFFFFF
FFFFFF
FFFFFF
FFFFFF
FFFFFF
FFFFFF
FFFFFF
FFFFFF
FFFFFF
FFFFFF
FFFFFF
FFFFFF
FFFFFF
ENDCHAR
STARTCHAR 25bd
ENCODING 9661
SWIDTH 2880 0
DWIDTH 24 0
BBX 24 24 0 0
BITMAP
FFFFFF
FFFFFF
FFFFFF
FFFFFF
FFFFFF
FFFFFF
000000
000000
000000
000000
000000
000000
000000
000000
000000
000000
000000
000000
000000
000000
000000
000000
000000
000000
ENDCHAR
STARTCHAR 25c0
ENCODING 9664
SWIDTH 2880 0
DWIDTH 24 0
BBX 24 24 0 0
BITMAP
0001FF
0001FF
0001FF
0001FF
0001FF
0001FF
0001FF
0001FF
0001FF
0001FF
0001FF
0001FF
0001FF
0001FF
0001FF
0001FF
0001FF
0001FF
0001FF
0001FF
0001FF
0001FF
0001FF
0001FF
ENDCHAR
STARTCHAR 25c1
ENCODING 9665
SWIDTH 2880 0
DWIDTH 24 0
BBX 24 24 0 0
BITMAP
00003F
00003F
00003F
00003F
00003F
00003F
00003F
00003F
00003F
00003F
00003F
00003F
00003F
00003F
00003F
00003F
00003F
00003F
00003F
00003F
00003F
00003F
00003F
00003F
ENDCHAR
STARTCHAR 25cb
ENCODING 9675
SWIDTH 2880 0
DWIDTH 24 0
BBX 24 24 0 0
BITMAP
000000
000000
000000
03FFC0
03FFC0
03FFC0
1C0038
1C0038
1C0038
1C0038
1C0038
1C0038
1C0038
1C0038
1C0038
1C0038
1C0038
1C0038
03FFC0
03FFC0
03FFC0
000000
000000
000000
ENDCHAR
STARTCHAR 25ce
ENCODING 9678
SWIDTH 2880 0
DWIDTH 24 0
BBX 24 24 0 0
BITMAP
FFFFFF
FFFFFF
FFFFFF
FC003F
FC003F
FC003F
E00007
E00007
E00007
E00007
E00007
E00007
E00007
E00007
E00007
E00007
E00007
E00007
FC003F
FC003F
FC003F
FFFFFF
FFFFFF
FFFFFF
ENDCHAR
STARTCHAR 25cf
ENCODING 9679
SWIDTH 2880 0
DWIDTH 24 0
BBX 24 24 0 0
BITMAP
000000
000000
000000
03FFC0
03FFC0
03FFC0
1FFFF8
1FFFF8
1FFFF8
1FFFF8
1FFFF8
1FFFF8
1FFFF8
1FFFF8
1FFFF8
1FFFF8
1FFFF8
1FFFF8
03FFC0
03FFC0
03FFC0
000000
000000
000000
ENDCHAR
STARTCHAR 25e2
ENCODING 9698
SWIDTH 2880 0
DWIDTH 24 0
BBX 24 24 0 0
BITMAP
000007
000007
000007
00003F
00003F
00003F
0001FF
0001FF
0001FF
000FFF
000FFF
000FFF
007FFF
007FFF
007FFF
03FFFF
03FFFF
03FFFF
1FFFFF
1FFFFF
1FFFFF
FFFFFF
FFFFFF
FFFFFF
ENDCHAR
STARTCHAR 25e3
ENCODING 9699
SWIDTH 2880 0
DWIDTH 24 0
BBX 24 24 0 0
BITMAP
E00000
E00000
E00000
FC0000
FC0000
FC0000
FF8000
FF8000
FF8000
FFF000
FFF000
FFF000
FFFE00
FFFE00
FFFE00
FFFFC0
FFFFC0
FFFFC0
FFFFF8
FFFFF8
FFFFF8
FFFFFF
FFFFFF
FFFFFF
ENDCHAR
STARTCHAR 25e4
ENCODING 9700
SWIDTH 2880 0
DWIDTH 24 0
BBX 24 24 0 0
BITMAP
FFFFFF
FFFFFF
FFFFFF
FFFFF8
FFFFF8
FFFFF8
FFFFC0
FFFFC0
FFFFC0
FFFE00
FFFE00
FFFE00
FFF000
FFF000
FFF000
FF8000
FF8000
FF8000
FC0000
FC0000
FC0000
E00000
E00000
E00000
ENDCHAR
STARTCHAR 25e5
ENCODING 9701
SWIDTH 2880 0
DWIDTH 24 0
BBX 24 24 0 0
BITMAP
FFFFFF
FFFFFF
FFFFFF
1FFFFF
1FFFFF
1FFFFF
03FFFF
03FFFF
03FFFF
007FFF
007FFF
007FFF
000FFF
000FFF
000FFF
0001FF
0001FF
0001FF
00003F
00003F
00003F
000007
000007
000007
ENDCHAR
STARTCHAR 263a
ENCODING 9786
SWIDTH 2880 0
DWIDTH 24 0
BBX 24 24 0 0
BITMAP
03FFC0
03FFC0
03FFC0
1C0038
1C0038
1C0038
E381C7
E381C7
E381C7
E00007
E00007
E00007
E381C7
E381C7
E381C7
E07E07
E07E07
E07E07
1C0038
1C0038
1C0038
03FFC0
03FFC0
03FFC0
ENDCHAR
STARTCHAR 263b
ENCODING 9787
SWIDTH 2880 0
DWIDTH 24 0
BBX 24 24 0 0
BITMAP
03FFC0
03FFC0
03FFC0
1FFFF8
1FFFF8
1FFFF8
FC7E3F
FC7E3F
FC7E3F
FC7E3F
FC7E3F
FC7E3F
FFFFFF
FFFFFF
FFFFFF
FC7E3F
FC7E3F
FC7E3F
1F81F8
1F81F8
1F81F8
03FFC0
03FFC0
03FFC0
ENDCHAR
STARTCHAR 2660
ENCODING 9824
SWIDTH 2880 0
DWIDTH 24 0
BBX 24 24 0 0
BITMAP
007000
007000
007000
03FE00
03FE00
03FE00
1FFFC0
1FFFC0
1FFFC0
FFFFF8
FFFFF8
FFFFF8
FFFFF8
FFFFF8
FFFFF8
03FE00
03FE00
03FE00
1FFFC0
1FFFC0
1FFFC0
000000
000000
000000
ENDCHAR
STARTCHAR 2663
ENCODING 9827
SWIDTH 2880 0
DWIDTH 24 0
BBX 24 24 0 0
BITMAP
03FE00
03FE00
03FE00
03FE00
03FE00
03FE00
FFFFF8
FFFFF8
FFFFF8
FFFFF8
FFFFF8
FFFFF8
FC71F8
FC71F8
FC71F8
007000
007000
007000
1FFFC0
1FFFC0
1FFFC0
000000
000000
000000
ENDCHAR
STARTCHAR 2665
ENCODING 9829
SWIDTH 2880 0
DWIDTH 24 0
BBX 24 24 0 0
BITMAP
1F8FC0
1F8FC0
1F8FC0
FFFFF8
FFFFF8
FFFFF8
FFFFF8
FFFFF8
FFFFF8
FFFFF8
FFFFF8
FFFFF8
1FFFC0
1FFFC0
1FFFC0
03FE00
03FE00
03FE00
007000
007000
007000
000000
000000
000000
ENDCHAR
STARTCHAR 2666
ENCODING 9830
SWIDTH 2880 0
DWIDTH 24 0
BBX 24 24 0 0
BITMAP
007000
007000
007000
03FE00
03FE00
03FE00
1FFFC0
1FFFC0
1FFFC0
FFFFF8
FFFFF8
FFFFF8
1FFFC0
1FFFC0
1FFFC0
03FE00
03FE00
03FE00
007000
007000
007000
000000
000000
000000
ENDCHAR
STARTCHAR 3001
ENCODING 12289
SWIDTH 2880 0
DWIDTH 24 0
BBX 24 24 0 0
BITMAP
000000
000000
000000
000000
000000
000000
000000
000000
000000
000000
000000
000000
1C0000
1C0000
1C0000
038000
038000
038000
007000
007000
007000
000000
000000
000000
ENDCHAR
STARTCHAR 3002
ENCODING 12290
SWIDTH 2880 0
DWIDTH 24 0
BBX 24 24 0 0
BITMAP
000000
000000
000000
000000
000000
000000
000000
000000
000000
03F000
03F000
03F000
1C0E00
1C0E00
1C0E00
1C0E00
1C0E00
1C0E00
03F000
03F000
03F000
000000
000000
000000
ENDCHAR
STARTCHAR 300c
ENCODING 12300
SWIDTH 2880 0
DWIDTH 24 0
BBX 24 24 0 0
BITMAP
007FF8
007FF8
007FF8
007000
007000
007000
007000
007000
007000
007000
007000
007000
000000
000000
000000
000000
000000
000000
000000
000000
000000
000000
000000
000000
ENDCHAR
STARTCHAR 300d
ENCODING 12301
SWIDTH 2880 0
DWIDTH 24 0
BBX 24 24 0 0
BITMAP
000000
000000
000000
000000
000000
000000
000000
000000
000000
000E00
000E00
000E00
000E00
000E00
000E00
000E00
000E00
000E00
1FFE00
1FFE00
1FFE00
000000
000000
000000
ENDCHAR
STARTCHAR 300e
ENCODING 12302
SWIDTH 2880 0
DWIDTH 24 0
BBX 24 24 0 0
BITMAP
03FFF8
03FFF8
03FFF8
038038
038038
038038
038FF8
038FF8
038FF8
038E00
038E00
038E00
03FE00
03FE00
03FE00
000000
000000
000000
000000
000000
000000
000000
000000
000000
ENDCHAR
STARTCHAR 300f
ENCODING 12303
SWIDTH 2880 0
DWIDTH 24 0
BBX 24 24 0 0
BITMAP
000000
000000
000000
000000
000000
000000
03FE00
03FE00
03FE00
038E00
038E00
038E00
FF8E00
FF8E00
FF8E00
E00E00
E00E00
E00E00
FFFE00
FFFE00
FFFE00
000000
000000
000000
ENDCHAR
STARTCHAR 301d
ENCODING 12317
SWIDTH 2880 0
DWIDTH 24 0
BBX 24 24 0 0
BITMAP
038000
038000
038000
E07000
E07000
E07000
1C0E00
1C0E00
1C0E00
038000
038000
038000
000000
000000
000000
000000
000000
000000
000000
000000
000000
000000
000000
000000
ENDCHAR
STARTCHAR 3041
ENCODING 12353
SWIDTH 2880 0
DWIDTH 24 0
BBX 24 24 0 0
BITMAP
000000
000000
000000
007000
007000
007000
FFFFF8
FFFFF8
FFFFF8
0071C0
0071C0
0071C0
1FFFC0
1FFFC0
1FFFC0
E07E38
E07E38
E07E38
1FF1C0
1FF1C0
1FF1C0
000000
000000
000000
ENDCHAR
STARTCHAR 3042
ENCODING 12354
SWIDTH 2880 0
DWIDTH 24 0
BBX 24 24 0 0
BITMAP
038000
038000
038000
FFFFF8
FFFFF8
FFFFF8
038000
038000
038000
1FFFC0
1FFFC0
1FFFC0
E38E38
E38E38
E38E38
E07038
E07038
E07038
1F81C0
1F81C0
1F81C0
000000
000000
000000
ENDCHAR
STARTCHAR 3043
ENCODING 12355
SWIDTH 2880 0
DWIDTH 24 0
BBX 24 24 0 0
BITMAP
000000
000000
000000
000000
000000
000000
E001C0
E001C0
E001C0
E00038
E00038
E00038
E00038
E00038
E00038
E00038
E00038
E00038
1C0000
1C0000
1C0000
000000
000000
000000
ENDCHAR
STARTCHAR 3044
ENCODING 12356
SWIDTH 2880 0
DWIDTH 24 0
BBX 24 24 0 0
BITMAP
E001C0
E001C0
E001C0
E00038
E00038
E00038
E00038
E00038
E00038
E00038
E00038
E00038
E00038
E00038
E00038
1C0038
1C0038
1C0038
03F000
03F000
03F000
000000
000000
000000
ENDCHAR
STARTCHAR 3045
ENCODING 12357
SWIDTH 2880 0
DWIDTH 24 0
BBX 24 24 0 0
BITMAP
000000
000000
000000
1FF000
1FF000
1FF000
000000
000000
000000
FFFE00
FFFE00
FFFE00
0001C0
0001C0
0001C0
0001C0
0001C0
0001C0
007E00
007E00
007E00
000000
000000
000000
ENDCHAR
STARTCHAR 3046
ENCODING 12358
SWIDTH 2880 0
DWIDTH 24 0
BBX 24 24 0 0
BITMAP
1FFFC0
1FFFC0
1FFFC0
000000
000000
000000
FFFFC0
FFFFC0
FFFFC0
000038
000038
000038
000038
000038
000038
0001C0
0001C0
0001C0
03FE00
03FE00
03FE00
000000
000000
000000
ENDCHAR
STARTCHAR 3047
ENCODING 12359
SWIDTH 2880 0
DWIDTH 24 0
BBX 24 24 0 0
BITMAP
000000
000000
000000
03FE00
03FE00
03FE00
000000
000000
000000
FFFFC0
FFFFC0
FFFFC0
007E00
007E00
007E00
1F8E00
1F8E00
1F8E00
E001C0
E001C0
E001C0
000000
000000
000000
ENDCHAR
STARTCHAR 3048
ENCODING 12360
SWIDTH 2880 0
DWIDTH 24 0
BBX 24 24 0 0
BITMAP
1FFFC0
1FFFC0
1FFFC0
000000
000000
000000
FFFFF8
FFFFF8
FFFFF8
0001C0
0001C0
0001C0
000E00
000E00
000E00
03F1C0
03F1C0
03F1C0
FC0038
FC0038
FC0038
000000
000000
000000
ENDCHAR
STARTCHAR 3049
ENCODING 12361
SWIDTH 2880 0
DWIDTH 24 0
BBX 24 24 0 0
BITMAP
000000
000000
000000
038000
038000
038000
FFFE38
FFFE38
FFFE38
038000
038000
038000
1FFFC0
1FFFC0
1FFFC0
E38038
E38038
E38038
1F8FC0
1F8FC0
1F8FC0
000000
000000
000000
ENDCHAR
STARTCHAR 304a
ENCODING 12362
SWIDTH 2880 0
DWIDTH 24 0
BBX 24 24 0 0
BITMAP
038000
038000
038000
FFFFC0
FFFFC0
FFFFC0
038007
038007
038007
1FFFC0
1FFFC0
1FFFC0
E38038
E38038
E38038
E38038
E38038
E38038
1F8FC0
1F8FC0
1F8FC0
000000
000000
000000
ENDCHAR
STARTCHAR 304b
ENCODING 12363
SWIDTH 2880 0
DWIDTH 24 0
BBX 24 24 0 0
BITMAP
038038
038038
038038
FFFE07
FFFE07
FFFE07
0381C7
0381C7
0381C7
0381C0
0381C0
0381C0
0381C0
0381C0
0381C0
0381C0
0381C0
0381C0
1C0E00
1C0E00
1C0E00
000000
000000
000000
ENDCHAR
STARTCHAR 304d
ENCODING 12365
SWIDTH 2880 0
DWIDTH 24 0
BBX 24 24 0 0
BITMAP
000E00
000E00
000E00
FFFFF8
FFFFF8
FFFFF8
000E00
000E00
000E00
FFFFF8
FFFFF8
FFFFF8
000E00
000E00
000E00
1FFE00
1FFE00
1FFE00
E00000
E00000
E00000
1FFFC0
1FFFC0
1FFFC0
ENDCHAR
STARTCHAR 304f
ENCODING 12367
SWIDTH 2880 0
DWIDTH 24 0
BBX 24 24 0 0
BITMAP
0001F8
0001F8
0001F8
007E00
007E00
007E00
038000
038000
038000
FC0000
FC0000
FC0000
038000
038000
038000
007E00
007E00
007E00
0001F8
0001F8
0001F8
000000
000000
000000
ENDCHAR
STARTCHAR 3051
ENCODING 12369
SWIDTH 2880 0
DWIDTH 24 0
BBX 24 24 0 0
BITMAP
E001C0
E001C0
E001C0
E3FFF8
E3FFF8
E3FFF8
E001C0
E001C0
E001C0
E001C0
E001C0
E001C0
E001C0
E001C0
E001C0
E001C0
E001C0
E001C0
1C7E00
1C7E00
1C7E00
000000
000000
000000
ENDCHAR
STARTCHAR 3053
ENCODING 12371
SWIDTH 2880 0
DWIDTH 24 0
BBX 24 24 0 0
BITMAP
1FFFC0
1FFFC0
1FFFC0
000038
000038
000038
000038
000038
000038
000000
000000
000000
E00000
E00000
E00000
E00000
E00000
E00000
1FFFF8
1FFFF8
1FFFF8
000000
000000
000000
ENDCHAR
STARTCHAR 3055
ENCODING 12373
SWIDTH 2880 0
DWIDTH 24 0
BBX 24 24 0 0
BITMAP
0001C0
0001C0
0001C0
FFFFF8
FFFFF8
FFFFF8
0001C0
0001C0
0001C0
1FFFC0
1FFFC0
1FFFC0
E00000
E00000
E00000
E00000
E00000
E00000
1FFFF8
1FFFF8
1FFFF8
000000
000000
000000
ENDCHAR
STARTCHAR 3057
ENCODING 12375
SWIDTH 2880 0
DWIDTH 24 0
BBX 24 24 0 0
BITMAP
E00000
E00000
E00000
E00000
E00000
E00000
E00000
E00000
E00000
E00038
E00038
E00038
E00038
E00038
E00038
1C01C0
1C01C0
1C01C0
03FE00
03FE00
03FE00
000000
000000
000000
ENDCHAR
STARTCHAR 3059
ENCODING 12377
SWIDTH 2880 0
DWIDTH 24 0
BBX 24 24 0 0
BITMAP
000E00
000E00
000E00
FFFFF8
FFFFF8
FFFFF8
000E00
000E00
000E00
007E00
007E00
007E00
0381C0
0381C0
0381C0
007E00
007E00
007E00
000E00
000E00
000E00
1FF000
1FF000
1FF000
ENDCHAR
STARTCHAR 305b
ENCODING 12379
SWIDTH 2880 0
DWIDTH 24 0
BBX 24 24 0 0
BITMAP
1C01C0
1C01C0
1C01C0
FFFFF8
FFFFF8
FFFFF8
1C01C0
1C01C0
1C01C0
1C01C0
1C01C0
1C01C0
1C0E00
1C0E00
1C0E00
1C0000
1C0000
1C0000
03FFF8
03FFF8
03FFF8
000000
000000
000000
ENDCHAR
STARTCHAR 305d
ENCODING 12381
SWIDTH 2880 0
DWIDTH 24 0
BBX 24 24 0 0
BITMAP
FFFFC0
FFFFC0
FFFFC0
007000
007000
007000
038000
038000
038000
FFFFF8
FFFFF8
FFFFF8
007000
007000
007000
038000
038000
038000
007FF8
007FF8
007FF8
000000
000000
000000
ENDCHAR
STARTCHAR 305f
ENCODING 12383
SWIDTH 2880 0
DWIDTH 24 0
BBX 24 24 0 0
BITMAP
038000
038000
038000
FFFFF8
FFFFF8
FFFFF8
1C0000
1C0000
1C0000
1C7FF8
1C7FF8
1C7FF8
E00000
E00000
E00000
E38000
E38000
E38000
E07FF8
E07FF8
E07FF8
000000
000000
000000
ENDCHAR
STARTCHAR 3061
ENCODING 12385
SWIDTH 2880 0
DWIDTH 24 0
BBX 24 24 0 0
BITMAP
007000
007000
007000
FFFFF8
FFFFF8
FFFFF8
1C0000
1C0000
1C0000
FFFFC0
FFFFC0
FFFFC0
000038
000038
000038
000038
000038
000038
FFFFC0
FFFFC0
FFFFC0
000000
000000
000000
ENDCHAR
STARTCHAR 3063
ENCODING 12387
SWIDTH 2880 0
DWIDTH 24 0
BBX 24 24 0 0
BITMAP
000000
000000
000000
000000
000000
000000
000000
000000
000000
FFFFC0
FFFFC0
FFFFC0
000038
000038
000038
000038
000038
000038
03FFC0
03FFC0
03FFC0
000000
000000
000000
ENDCHAR
STARTCHAR 3064
ENCODING 12388
SWIDTH 2880 0
DWIDTH 24 0
BBX 24 24 0 0
BITMAP
000000
000000
000000
FFFFC0
FFFFC0
FFFFC0
000038
000038
000038
000038
000038
000038
000038
000038
000038
0001C0
0001C0
0001C0
1FFE00
1FFE00
1FFE00
000000
000000
000000
ENDCHAR
STARTCHAR 3066
ENCODING 12390
SWIDTH 2880 0
DWIDTH 24 0
BBX 24 24 0 0
BITMAP
000000
000000
000000
FFFFF8
FFFFF8
FFFFF8
000E00
000E00
000E00
007000
007000
007000
038000
038000
038000
007000
007000
007000
000FF8
000FF8
000FF8
000000
000000
000000
ENDCHAR
STARTCHAR 3068
ENCODING 12392
SWIDTH 2880 0
DWIDTH 24 0
BBX 24 24 0 0
BITMAP
038000
038000
038000
038000
038000
038000
1FFFF8
1FFFF8
1FFFF8
E00000
E00000
E00000
E00000
E00000
E00000
E00000
E00000
E00000
1FFFF8
1FFFF8
1FFFF8
000000
000000
000000
ENDCHAR
STARTCHAR 306a
ENCODING 12394
SWIDTH 2880 0
DWIDTH 24 0
BBX 24 24 0 0
BITMAP
038000
038000
038000
FFFE38
FFFE38
FFFE38
1C0000
1C0000
1C0000
1C01C0
1C01C0
1C01C0
E00FC0
E00FC0
E00FC0
E07038
E07038
E07038
E00FC0
E00FC0
E00FC0
000000
000000
000000
ENDCHAR
STARTCHAR 306b
ENCODING 12395
SWIDTH 2880 0
DWIDTH 24 0
BBX 24 24 0 0
BITMAP
1C7FF8
1C7FF8
1C7FF8
E00000
E00000
E00000
E00000
E00000
E00000
E00000
E00000
E00000
E00000
E00000
E00000
E38000
E38000
E38000
1C7FF8
1C7FF8
1C7FF8
000000
000000
000000
ENDCHAR
STARTCHAR 306c
ENCODING 12396
SWIDTH 2880 0
DWIDTH 24 0
BBX 24 24 0 0
BITMAP
1C0E00
1C0E00
1C0E00
1FFFC0
1FFFC0
1FFFC0
E07038
E07038
E07038
E07038
E07038
E07038
E381F8
E381F8
E381F8
E38E3F
E38E3F
E38E3F
1C01C0
1C01C0
1C01C0
000000
000000
000000
ENDCHAR
STARTCHAR 306d
ENCODING 12397
SWIDTH 2880 0
DWIDTH 24 0
BBX 24 24 0 0
BITMAP
038000
038000
038000
FF8000
FF8000
FF8000
038FC0
038FC0
038FC0
03F038
03F038
03F038
1F81F8
1F81F8
1F81F8
E38E3F
E38E3F
E38E3F
0381C0
0381C0
0381C0
000000
000000
000000
ENDCHAR
STARTCHAR 306e
ENCODING 12398
SWIDTH 2880 0
DWIDTH 24 0
BBX 24 24 0 0
BITMAP
1FFFC0
1FFFC0
1FFFC0
E07038
E07038
E07038
E07038
E07038
E07038
E07038
E07038
E07038
E07038
E07038
E07038
E07038
E07038
E07038
1FF1C0
1FF1C0
1FF1C0
000000
000000
000000
ENDCHAR
STARTCHAR 306f
ENCODING 12399
SWIDTH 2880 0
DWIDTH 24 0
BBX 24 24 0 0
BITMAP
E001C0
E001C0
E001C0
E3FFF8
E3FFF8
E3FFF8
E001C0
E001C0
E001C0
E001C0
E001C0
E001C0
E00FC0
E00FC0
E00FC0
E071F8
E071F8
E071F8
1C0FC0
1C0FC0
1C0FC0
000000
000000
000000
ENDCHAR
STARTCHAR 3072
ENCODING 12402
SWIDTH 2880 0
DWIDTH 24 0
BBX 24 24 0 0
BITMAP
FF8000
FF8000
FF8000
0381C0
0381C0
0381C0
1C01F8
1C01F8
1C01F8
E001C0
E001C0
E001C0
E001C0
E001C0
E001C0
E001C0
E001C0
E001C0
1FFE00
1FFE00
1FFE00
000000
000000
000000
ENDCHAR
STARTCHAR 3075
ENCODING 12405
SWIDTH 2880 0
DWIDTH 24 0
BBX 24 24 0 0
BITMAP
1FFE00
1FFE00
1FFE00
007000
007000
007000
038000
038000
038000
007000
007000
007000
E00E38
E00E38
E00E38
E00E38
E00E38
E00E38
03F000
03F000
03F000
000000
000000
000000
ENDCHAR
STARTCHAR 3078
ENCODING 12408
SWIDTH 2880 0
DWIDTH 24 0
BBX 24 24 0 0
BITMAP
038000
038000
038000
1C7000
1C7000
1C7000
E00E00
E00E00
E00E00
E001C0
E001C0
E001C0
000038
000038
000038
000038
000038
000038
000038
000038
000038
000000
000000
000000
ENDCHAR
STARTCHAR 307b
ENCODING 12411
SWIDTH 2880 0
DWIDTH 24 0
BBX 24 24 0 0
BITMAP
E3FFF8
E3FFF8
E3FFF8
E001C0
E001C0
E001C0
E3FFF8
E3FFF8
E3FFF8
E001C0
E001C0
E001C0
E00FC0
E00FC0
E00FC0
E07038
E07038
E07038
1C0FC0
1C0FC0
1C0FC0
000000
000000
000000
ENDCHAR
STARTCHAR 307e
ENCODING 12414
SWIDTH 2880 0
DWIDTH 24 0
BBX 24 24 0 0
BITMAP
007000
007000
007000
FFFFF8
FFFFF8
FFFFF8
007000
007000
007000
FFFFF8
FFFFF8
FFFFF8
007000
007000
007000
1FF000
1FF000
1FF000
E00FF8
E00FF8
E00FF8
1FF000
1FF000
1FF000
ENDCHAR
STARTCHAR 307f
ENCODING 12415
SWIDTH 2880 0
DWIDTH 24 0
BBX 24 24 0 0
BITMAP
FFF000
FFF000
FFF000
007038
007038
007038
007038
007038
007038
1FFFFF
1FFFFF
1FFFFF
E07038
E07038
E07038
E07038
E07038
E07038
1F81C0
1F81C0
1F81C0
000000
000000
000000
ENDCHAR
STARTCHAR 3080
ENCODING 12416
SWIDTH 2880 0
DWIDTH 24 0
BBX 24 24 0 0
BITMAP
038000
038000
038000
FFFFF8
FFFFF8
FFFFF8
038000
038000
038000
1F803F
1F803F
1F803F
E07000
E07000
E07000
1F8038
1F8038
1F8038
007FC0
007FC0
007FC0
000000
000000
000000
ENDCHAR
STARTCHAR 3081
ENCODING 12417
SWIDTH 2880 0
DWIDTH 24 0
BBX 24 24 0 0
BITMAP
1C01C0
1C01C0
1C01C0
1C01C0
1C01C0
1C01C0
1FFFC0
1FFFC0
1FFFC0
E38E38
E38E38
E38E38
E07038
E07038
E07038
E07038
E07038
E07038
1F81C0
1F81C0
1F81C0
000000
000000
000000
ENDCHAR
STARTCHAR 3082
ENCODING 12418
SWIDTH 2880 0
DWIDTH 24 0
BBX 24 24 0 0
BITMAP
1C0000
1C0000
1C0000
FFFFF8
FFFFF8
FFFFF8
1C0000
1C0000
1C0000
FFFFF8
FFFFF8
FFFFF8
1C0000
1C0000
1C0000
1C0038
1C0038
1C0038
03FFC0
03FFC0
03FFC0
000000
000000
000000
ENDCHAR
STARTCHAR 3083
ENCODING 12419
SWIDTH 2880 0
DWIDTH 24 0
BBX 24 24 0 0
BITMAP
000000
000000
000000
000038
000038
000038
1C7FC0
1C7FC0
1C7FC0
FF8038
FF8038
FF8038
038038
038038
038038
0381C0
0381C0
0381C0
007000
007000
007000
000000
000000
000000
ENDCHAR
STARTCHAR 3084
ENCODING 12420
SWIDTH 2880 0
DWIDTH 24 0
BBX 24 24 0 0
BITMAP
1C0038
1C0038
1C0038
FFFFC0
FFFFC0
FFFFC0
1C0038
1C0038
1C0038
1C0038
1C0038
1C0038
0381C0
0381C0
0381C0
038000
038000
038000
038000
038000
038000
000000
000000
000000
ENDCHAR
STARTCHAR 3085
ENCODING 12421
SWIDTH 2880 0
DWIDTH 24 0
BBX 24 24 0 0
BITMAP
000000
000000
000000
000000
000000
000000
E07000
E07000
E07000
E3FFC0
E3FFC0
E3FFC0
FC7038
FC7038
FC7038
E071C0
E071C0
E071C0
038000
038000
038000
000000
000000
000000
ENDCHAR
STARTCHAR 3086
ENCODING 12422
SWIDTH 2880 0
DWIDTH 24 0
BBX 24 24 0 0
BITMAP
000E00
000E00
000E00
E07FC0
E07FC0
E07FC0
E38E38
E38E38
E38E38
FC0E38
FC0E38
FC0E38
E00E38
E00E38
E00E38
E00FC0
E00FC0
E00FC0
03F000
03F000
03F000
000000
000000
000000
ENDCHAR
STARTCHAR 3087
ENCODING 12423
SWIDTH 2880 0
DWIDTH 24 0
BBX 24 24 0 0
BITMAP
000000
000000
000000
007000
007000
007000
007FC0
007FC0
007FC0
007000
007000
007000
1FFE00
1FFE00
1FFE00
E07000
E07000
E07000
1F8000
1F8000
1F8000
000000
000000
000000
ENDCHAR
STARTCHAR 3088
ENCODING 12424
SWIDTH 2880 0
DWIDTH 24 0
BBX 24 24 0 0
BITMAP
038000
038000
038000
03FFF8
03FFF8
03FFF8
038000
038000
038000
1F8000
1F8000
1F8000
E07FC0
E07FC0
E07FC0
E07000
E07000
E07000
1F8000
1F8000
1F8000
000000
000000
000000
ENDCHAR
STARTCHAR 3089
ENCODING 12425
SWIDTH 2880 0
DWIDTH 24 0
BBX 24 24 0 0
BITMAP
03FFF8
03FFF8
03FFF8
E00000
E00000
E00000
E07FC0
E07FC0
E07FC0
FF8038
FF8038
FF8038
E00038
E00038
E00038
000038
000038
000038
03FFC0
03FFC0
03FFC0
000000
000000
000000
ENDCHAR
STARTCHAR 308a
ENCODING 12426
SWIDTH 2880 0
DWIDTH 24 0
BBX 24 24 0 0
BITMAP
E00038
E00038
E00038
E00038
E00038
E00038
E00038
E00038
E00038
E00038
E00038
E00038
1C0038
1C0038
1C0038
0001C0
0001C0
0001C0
007E00
007E00
007E00
000000
000000
000000
ENDCHAR
STARTCHAR 308b
ENCODING 12427
SWIDTH 2880 0
DWIDTH 24 0
BBX 24 24 0 0
BITMAP
FFFFF8
FFFFF8
FFFFF8
000E00
000E00
000E00
007000
007000
007000
1FFFC0
1FFFC0
1FFFC0
E00038
E00038
E00038
03FE38
03FE38
03FE38
1C01C0
1C01C0
1C01C0
03FE00
03FE00
03FE00
ENDCHAR
STARTCHAR 308c
ENCODING 12428
SWIDTH 2880 0
DWIDTH 24 0
BBX 24 24 0 0
BITMAP
038000
038000
038000
FF81F8
FF81F8
FF81F8
038FC0
038FC0
038FC0
03F1C0
03F1C0
03F1C0
0381C0
0381C0
0381C0
1F81C0
1F81C0
1F81C0
E38038
E38038
E38038
000000
000000
000000
ENDCHAR
STARTCHAR 308d
ENCODING 12429
SWIDTH 2880 0
DWIDTH 24 0
BBX 24 24 0 0
BITMAP
FFFFF8
FFFFF8
FFFFF8
000E00
000E00
000E00
007000
007000
007000
1FFFC0
1FFFC0
1FFFC0
E00038
E00038
E00038
000038
000038
000038
1C01C0
1C01C0
1C01C0
03FE00
03FE00
03FE00
ENDCHAR
STARTCHAR 308f
ENCODING 12431
SWIDTH 2880 0
DWIDTH 24 0
BBX 24 24 0 0
BITMAP
038000
038000
038000
FF8FC0
FF8FC0
FF8FC0
03F038
03F038
03F038
03F038
03F038
03F038
038038
038038
038038
1F8038
1F8038
1F8038
E38FC0
E38FC0
E38FC0
000000
000000
000000
ENDCHAR
STARTCHAR 3092
ENCODING 12434
SWIDTH 2880 0
DWIDTH 24 0
BBX 24 24 0 0
BITMAP
007000
007000
007000
FFFFF8
FFFFF8
FFFFF8
038000
038000
038000
1FFFC0
1FFFC0
1FFFC0
E07000
E07000
E07000
1C0000
1C0000
1C0000
03FFF8
03FFF8
03FFF8
000000
000000
000000
ENDCHAR
STARTCHAR 3093
ENCODING 12435
SWIDTH 2880 0
DWIDTH 24 0
BBX 24 24 0 0
BITMAP
007000
007000
007000
038000
038000
038000
03FE00
03FE00
03FE00
1C01C0
1C01C0
1C01C0
1C01C0
1C01C0
1C01C0
E00E00
E00E00
E00E00
E00FF8
E00FF8
E00FF8
000000
000000
000000
ENDCHAR
STARTCHAR 309b
ENCODING 12443
SWIDTH 2880 0
DWIDTH 24 0
BBX 24 24 0 0
BITMAP
038000
038000
038000
E07000
E07000
E07000
1C0E00
1C0E00
1C0E00
038000
038000
038000
000000
000000
000000
000000
000000
000000
000000
000000
000000
000000
000000
000000
ENDCHAR
STARTCHAR 309c
ENCODING 12444
SWIDTH 2880 0
DWIDTH 24 0
BBX 24 24 0 0
BITMAP
1F8000
1F8000
1F8000
E07000
E07000
E07000
E07000
E07000
E07000
1F8000
1F8000
1F8000
000000
000000
000000
000000
000000
000000
000000
000000
000000
000000
000000
000000
ENDCHAR
STARTCHAR 30a1
ENCODING 12449
SWIDTH 2880 0
DWIDTH 24 0
BBX 24 24 0 0
BITMAP
000000
000000
000000
000000
000000
000000
FFFFF8
FFFFF8
FFFFF8
000038
000038
000038
0071C0
0071C0
0071C0
007000
007000
007000
038000
038000
038000
000000
000000
000000
ENDCHAR
STARTCHAR 30a2
ENCODING 12450
SWIDTH 2880 0
DWIDTH 24 0
BBX 24 24 0 0
BITMAP
FFFFF8
FFFFF8
FFFFF8
000038
000038
000038
0071C0
0071C0
0071C0
007E00
007E00
007E00
007000
007000
007000
038000
038000
038000
1C0000
1C0000
1C0000
000000
000000
000000
ENDCHAR
STARTCHAR 30a3
ENCODING 12451
SWIDTH 2880 0
DWIDTH 24 0
BBX 24 24 0 0
BITMAP
000000
000000
000000
000000
000000
000000
0001F8
0001F8
0001F8
000E00
000E00
000E00
03FE00
03FE00
03FE00
FC0E00
FC0E00
FC0E00
000E00
000E00
000E00
000000
000000
000000
ENDCHAR
STARTCHAR 30a4
ENCODING 12452
SWIDTH 2880 0
DWIDTH 24 0
BBX 24 24 0 0
BITMAP
000038
000038
000038
0001C0
0001C0
0001C0
007E00
007E00
007E00
FF8E00
FF8E00
FF8E00
000E00
000E00
000E00
000E00
000E00
000E00
000E00
000E00
000E00
000000
000000
000000
ENDCHAR
STARTCHAR 30a5
ENCODING 12453
SWIDTH 2880 0
DWIDTH 24 0
BBX 24 24 0 0
BITMAP
000000
000000
000000
000000
000000
000000
007000
007000
007000
FFFFF8
FFFFF8
FFFFF8
E00038
E00038
E00038
0001C0
0001C0
0001C0
03FE00
03FE00
03FE00
000000
000000
000000
ENDCHAR
STARTCHAR 30a6
ENCODING 12454
SWIDTH 2880 0
DWIDTH 24 0
BBX 24 24 0 0
BITMAP
007000
007000
007000
FFFFF8
FFFFF8
FFFFF8
E00038
E00038
E00038
E00038
E00038
E00038
000038
000038
000038
000FC0
000FC0
000FC0
03F000
03F000
03F000
000000
000000
000000
ENDCHAR
STARTCHAR 30a7
ENCODING 12455
SWIDTH 2880 0
DWIDTH 24 0
BBX 24 24 0 0
BITMAP
000000
000000
000000
000000
000000
000000
000000
000000
000000
1FFFC0
1FFFC0
1FFFC0
007000
007000
007000
007000
007000
007000
FFFFF8
FFFFF8
FFFFF8
000000
000000
000000
ENDCHAR
STARTCHAR 30a8
ENCODING 12456
SWIDTH 2880 0
DWIDTH 24 0
BBX 24 24 0 0
BITMAP
000000
000000
000000
FFFFF8
FFFFF8
FFFFF8
007000
007000
007000
007000
007000
007000
007000
007000
007000
007000
007000
007000
FFFFF8
FFFFF8
FFFFF8
000000
000000
000000
ENDCHAR
STARTCHAR 30a9
ENCODING 12457
SWIDTH 2880 0
DWIDTH 24 0
BBX 24 24 0 0
BITMAP
000000
000000
000000
000000
000000
000000
000E00
000E00
000E00
FFFFF8
FFFFF8
FFFFF8
007E00
007E00
007E00
038E00
038E00
038E00
FC0E00
FC0E00
FC0E00
000000
000000
000000
ENDCHAR
STARTCHAR 30aa
ENCODING 12458
SWIDTH 2880 0
DWIDTH 24 0
BBX 24 24 0 0
BITMAP
000E00
000E00
000E00
FFFFF8
FFFFF8
FFFFF8
000E00
000E00
000E00
007E00
007E00
007E00
038E00
038E00
038E00
1C0E00
1C0E00
1C0E00
E00E00
E00E00
E00E00
000000
000000
000000
ENDCHAR
STARTCHAR 30ab
ENCODING 12459
SWIDTH 2880 0
DWIDTH 24 0
BBX 24 24 0 0
BITMAP
038000
038000
038000
FFFFF8
FFFFF8
FFFFF8
038038
038038
038038
038038
038038
038038
038038
038038
038038
1C0038
1C0038
1C0038
E001C0
E001C0
E001C0
000000
000000
000000
ENDCHAR
STARTCHAR 30ad
ENCODING 12461
SWIDTH 2880 0
DWIDTH 24 0
BBX 24 24 0 0
BITMAP
007000
007000
007000
FFFFF8
FFFFF8
FFFFF8
007000
007000
007000
FFFFF8
FFFFF8
FFFFF8
007000
007000
007000
007000
007000
007000
007000
007000
007000
000000
000000
000000
ENDCHAR
STARTCHAR 30af
ENCODING 12463
SWIDTH 2880 0
DWIDTH 24 0
BBX 24 24 0 0
BITMAP
000000
000000
000000
1FFFF8
1FFFF8
1FFFF8
1C0038
1C0038
1C0038
E00038
E00038
E00038
000038
000038
000038
0001C0
0001C0
0001C0
007E00
007E00
007E00
000000
000000
000000
ENDCHAR
STARTCHAR 30b1
ENCODING 12465
SWIDTH 2880 0
DWIDTH 24 0
BBX 24 24 0 0
BITMAP
1C0000
1C0000
1C0000
1FFFF8
1FFFF8
1FFFF8
1C01C0
1C01C0
1C01C0
E001C0
E001C0
E001C0
0001C0
0001C0
0001C0
000E00
000E00
000E00
03F000
03F000
03F000
000000
000000
000000
ENDCHAR
STARTCHAR 30b3
ENCODING 12467
SWIDTH 2880 0
DWIDTH 24 0
BBX 24 24 0 0
BITMAP
000000
000000
000000
FFFFF8
FFFFF8
FFFFF8
000038
000038
000038
000038
000038
000038
000038
000038
000038
000038
000038
000038
FFFFF8
FFFFF8
FFFFF8
000000
000000
000000
ENDCHAR
STARTCHAR 30b5
ENCODING 12469
SWIDTH 2880 0
DWIDTH 24 0
BBX 24 24 0 0
BITMAP
1C01C0
1C01C0
1C01C0
FFFFF8
FFFFF8
FFFFF8
1C01C0
1C01C0
1C01C0
1C01C0
1C01C0
1C01C0
0001C0
0001C0
0001C0
000E00
000E00
000E00
03F000
03F000
03F000
000000
000000
000000
ENDCHAR
STARTCHAR 30b7
ENCODING 12471
SWIDTH 2880 0
DWIDTH 24 0
BBX 24 24 0 0
BITMAP
000000
000000
000000
1FF000
1FF000
1FF000
000000
000000
000000
FF8038
FF8038
FF8038
000038
000038
000038
0001C0
0001C0
0001C0
FFFE00
FFFE00
FFFE00
000000
000000
000000
ENDCHAR
STARTCHAR 30b9
ENCODING 12473
SWIDTH 2880 0
DWIDTH 24 0
BBX 24 24 0 0
BITMAP
000000
000000
000000
FFFFF8
FFFFF8
FFFFF8
0001C0
0001C0
0001C0
000E00
000E00
000E00
007E00
007E00
007E00
0381C0
0381C0
0381C0
FC0038
FC0038
FC0038
000000
000000
000000
ENDCHAR
STARTCHAR 30bb
ENCODING 12475
SWIDTH 2880 0
DWIDTH 24 0
BBX 24 24 0 0
BITMAP
1C0000
1C0000
1C0000
FFFFF8
FFFFF8
FFFFF8
1C0038
1C0038
1C0038
1C01C0
1C01C0
1C01C0
1C0E00
1C0E00
1C0E00
1C0000
1C0000
1C0000
03FFC0
03FFC0
03FFC0
000000
000000
000000
ENDCHAR
STARTCHAR 30bd
ENCODING 12477
SWIDTH 2880 0
DWIDTH 24 0
BBX 24 24 0 0
BITMAP
000000
000000
000000
E00038
E00038
E00038
1C0038
1C0038
1C0038
038038
038038
038038
0001C0
0001C0
0001C0
000E00
000E00
000E00
1FF000
1FF000
1FF000
000000
000000
000000
ENDCHAR
STARTCHAR 30bf
ENCODING 12479
SWIDTH 2880 0
DWIDTH 24 0
BBX 24 24 0 0
BITMAP
000000
000000
000000
1FFFF8
1FFFF8
1FFFF8
1C0038
1C0038
1C0038
1FFFF8
1FFFF8
1FFFF8
E00038
E00038
E00038
0001C0
0001C0
0001C0
007E00
007E00
007E00
000000
000000
000000
ENDCHAR
STARTCHAR 30c1
ENCODING 12481
SWIDTH 2880 0
DWIDTH 24 0
BBX 24 24 0 0
BITMAP
0001C0
0001C0
0001C0
1FFE00
1FFE00
1FFE00
000E00
000E00
000E00
FFFFF8
FFFFF8
FFFFF8
000E00
000E00
000E00
007000
007000
007000
1F8000
1F8000
1F8000
000000
000000
000000
ENDCHAR
STARTCHAR 30c3
ENCODING 12483
SWIDTH 2880 0
DWIDTH 24 0
BBX 24 24 0 0
BITMAP
000000
000000
000000
000000
000000
000000
000000
000000
000000
E38038
E38038
E38038
E38038
E38038
E38038
0001C0
0001C0
0001C0
1FFE00
1FFE00
1FFE00
000000
000000
000000
ENDCHAR
STARTCHAR 30c4
ENCODING 12484
SWIDTH 2880 0
DWIDTH 24 0
BBX 24 24 0 0
BITMAP
000000
000000
000000
E38038
E38038
E38038
E38038
E38038
E38038
E38038
E38038
E38038
000038
000038
000038
0001C0
0001C0
0001C0
1FFE00
1FFE00
1FFE00
000000
000000
000000
ENDCHAR
STARTCHAR 30c6
ENCODING 12486
SWIDTH 2880 0
DWIDTH 24 0
BBX 24 24 0 0
BITMAP
1FFFC0
1FFFC0
1FFFC0
000000
000000
000000
FFFFF8
FFFFF8
FFFFF8
000E00
000E00
000E00
000E00
000E00
000E00
007000
007000
007000
1F8000
1F8000
1F8000
000000
000000
000000
ENDCHAR
STARTCHAR 30c8
ENCODING 12488
SWIDTH 2880 0
DWIDTH 24 0
BBX 24 24 0 0
BITMAP
038000
038000
038000
038000
038000
038000
038000
038000
038000
03FE00
03FE00
03FE00
0381F8
0381F8
0381F8
038000
038000
038000
038000
038000
038000
000000
000000
000000
ENDCHAR
STARTCHAR 30ca
ENCODING 12490
SWIDTH 2880 0
DWIDTH 24 0
BBX 24 24 0 0
BITMAP
000E00
000E00
000E00
000E00
000E00
000E00
FFFFF8
FFFFF8
FFFFF8
000E00
000E00
000E00
000E00
000E00
000E00
007000
007000
007000
1F8000
1F8000
1F8000
000000
000000
000000
ENDCHAR
STARTCHAR 30cb
ENCODING 12491
SWIDTH 2880 0
DWIDTH 24 0
BBX 24 24 0 0
BITMAP
000000
000000
000000
1FFFC0
1FFFC0
1FFFC0
000000
000000
000000
000000
000000
000000
000000
000000
000000
000000
000000
000000
FFFFF8
FFFFF8
FFFFF8
000000
000000
000000
ENDCHAR
STARTCHAR 30cc
ENCODING 12492
SWIDTH 2880 0
DWIDTH 24 0
BBX 24 24 0 0
BITMAP
000000
000000
000000
FFFFF8
FFFFF8
FFFFF8
000038
000038
000038
038038
038038
038038
0071C0
0071C0
0071C0
000E00
000E00
000E00
1FF1C0
1FF1C0
1FF1C0
000000
000000
000000
ENDCHAR
STARTCHAR 30cd
ENCODING 12493
SWIDTH 2880 0
DWIDTH 24 0
BBX 24 24 0 0
BITMAP
007000
007000
007000
FFFFF8
FFFFF8
FFFFF8
0001C0
0001C0
0001C0
000E00
000E00
000E00
03F1C0
03F1C0
03F1C0
FC7038
FC7038
FC7038
007000
007000
007000
000000
000000
000000
ENDCHAR
STARTCHAR 30ce
ENCODING 12494
SWIDTH 2880 0
DWIDTH 24 0
BBX 24 24 0 0
BITMAP
0001C0
0001C0
0001C0
0001C0
0001C0
0001C0
0001C0
0001C0
0001C0
0001C0
0001C0
0001C0
0001C0
0001C0
0001C0
000E00
000E00
000E00
03F000
03F000
03F000
000000
000000
000000
ENDCHAR
STARTCHAR 30cf
ENCODING 12495
SWIDTH 2880 0
DWIDTH 24 0
BBX 24 24 0 0
BITMAP
007E00
007E00
007E00
0001C0
0001C0
0001C0
1C0038
1C0038
1C0038
1C0038
1C0038
1C0038
1C0038
1C0038
1C0038
E00038
E00038
E00038
0001C0
0001C0
0001C0
000000
000000
000000
ENDCHAR
STARTCHAR 30d2
ENCODING 12498
SWIDTH 2880 0
DWIDTH 24 0
BBX 24 24 0 0
BITMAP
E00000
E00000
E00000
E00000
E00000
E00000
FFFFC0
FFFFC0
FFFFC0
E00000
E00000
E00000
E00000
E00000
E00000
E00000
E00000
E00000
1FFFC0
1FFFC0
1FFFC0
000000
000000
000000
ENDCHAR
STARTCHAR 30d5
ENCODING 12501
SWIDTH 2880 0
DWIDTH 24 0
BBX 24 24 0 0
BITMAP
000000
000000
000000
FFFFF8
FFFFF8
FFFFF8
000038
000038
000038
000038
000038
000038
000038
000038
000038
0001C0
0001C0
0001C0
1FFE00
1FFE00
1FFE00
000000
000000
000000
ENDCHAR
STARTCHAR 30d8
ENCODING 12504
SWIDTH 2880 0
DWIDTH 24 0
BBX 24 24 0 0
BITMAP
000000
000000
000000
038000
038000
038000
1C7000
1C7000
1C7000
1C0E00
1C0E00
1C0E00
E001C0
E001C0
E001C0
E00038
E00038
E00038
000038
000038
000038
000000
000000
000000
ENDCHAR
STARTCHAR 30db
ENCODING 12507
SWIDTH 2880 0
DWIDTH 24 0
BBX 24 24 0 0
BITMAP
007000
007000
007000
FFFFF8
FFFFF8
FFFFF8
007000
007000
007000
007000
007000
007000
1C71C0
1C71C0
1C71C0
E07038
E07038
E07038
E07038
E07038
E07038
000000
000000
000000
ENDCHAR
STARTCHAR 30de
ENCODING 12510
SWIDTH 2880 0
DWIDTH 24 0
BBX 24 24 0 0
BITMAP
000000
000000
000000
FFFFF8
FFFFF8
FFFFF8
000038
000038
000038
000038
000038
000038
038FC0
038FC0
038FC0
007000
007000
007000
000E00
000E00
000E00
000000
000000
000000
ENDCHAR
STARTCHAR 30df
ENCODING 12511
SWIDTH 2880 0
DWIDTH 24 0
BBX 24 24 0 0
BITMAP
03FE00
03FE00
03FE00
0001F8
0001F8
0001F8
1FF000
1FF000
1FF000
000FF8
000FF8
000FF8
000000
000000
000000
FFF000
FFF000
FFF000
000FF8
000FF8
000FF8
000000
000000
000000
ENDCHAR
STARTCHAR 30e0
ENCODING 12512
SWIDTH 2880 0
DWIDTH 24 0
BBX 24 24 0 0
BITMAP
000000
000000
000000
007000
007000
007000
007000
007000
007000
038038
038038
038038
1C0038
1C0038
1C0038
FFFFF8
FFFFF8
FFFFF8
000038
000038
000038
000000
000000
000000
ENDCHAR
STARTCHAR 30e1
ENCODING 12513
SWIDTH 2880 0
DWIDTH 24 0
BBX 24 24 0 0
BITMAP
000000
000000
000000
0001C0
0001C0
0001C0
1C01C0
1C01C0
1C01C0
038E00
038E00
038E00
007000
007000
007000
038E00
038E00
038E00
FC01C0
FC01C0
FC01C0
000000
000000
000000
ENDCHAR
STARTCHAR 30e2
ENCODING 12514
SWIDTH 2880 0
DWIDTH 24 0
BBX 24 24 0 0
BITMAP
000000
000000
000000
FFFFF8
FFFFF8
FFFFF8
1C0000
1C0000
1C0000
FFFFF8
FFFFF8
FFFFF8
1C0000
1C0000
1C0000
1C0000
1C0000
1C0000
03FFF8
03FFF8
03FFF8
000000
000000
000000
ENDCHAR
STARTCHAR 30e3
ENCODING 12515
SWIDTH 2880 0
DWIDTH 24 0
BBX 24 24 0 0
BITMAP
000000
000000
000000
000000
000000
000000
1C0000
1C0000
1C0000
FFFFF8
FFFFF8
FFFFF8
1C0038
1C0038
1C0038
0381C0
0381C0
0381C0
038000
038000
038000
000000
000000
000000
ENDCHAR
STARTCHAR 30e4
ENCODING 12516
SWIDTH 2880 0
DWIDTH 24 0
BBX 24 24 0 0
BITMAP
1C0000
1C0000
1C0000
1C0000
1C0000
1C0000
FFFFF8
FFFFF8
FFFFF8
1C0038
1C0038
1C0038
0381C0
0381C0
0381C0
038000
038000
038000
038000
038000
038000
000000
000000
000000
ENDCHAR
STARTCHAR 30e5
ENCODING 12517
SWIDTH 2880 0
DWIDTH 24 0
BBX 24 24 0 0
BITMAP
000000
000000
000000
000000
000000
000000
000000
000000
000000
1FFFC0
1FFFC0
1FFFC0
0001C0
0001C0
0001C0
0001C0
0001C0
0001C0
FFFFF8
FFFFF8
FFFFF8
000000
000000
000000
ENDCHAR
STARTCHAR 30e6
ENCODING 12518
SWIDTH 2880 0
DWIDTH 24 0
BBX 24 24 0 0
BITMAP
000000
000000
000000
1FFE00
1FFE00
1FFE00
000E00
000E00
000E00
000E00
000E00
000E00
000E00
000E00
000E00
000E00
000E00
000E00
FFFFF8
FFFFF8
FFFFF8
000000
000000
000000
ENDCHAR
STARTCHAR 30e7
ENCODING 12519
SWIDTH 2880 0
DWIDTH 24 0
BBX 24 24 0 0
BITMAP
000000
000000
000000
000000
000000
000000
FFFFF8
FFFFF8
FFFFF8
000038
000038
000038
FFFFF8
FFFFF8
FFFFF8
000038
000038
000038
FFFFF8
FFFFF8
FFFFF8
000000
000000
000000
ENDCHAR
STARTCHAR 30e8
ENCODING 12520
SWIDTH 2880 0
DWIDTH 24 0
BBX 24 24 0 0
BITMAP
000000
000000
000000
FFFFF8
FFFFF8
FFFFF8
000038
000038
000038
FFFFF8
FFFFF8
FFFFF8
000038
000038
000038
000038
000038
000038
FFFFF8
FFFFF8
FFFFF8
000000
000000
000000
ENDCHAR
STARTCHAR 30e9
ENCODING 12521
SWIDTH 2880 0
DWIDTH 24 0
BBX 24 24 0 0
BITMAP
FFFFF8
FFFFF8
FFFFF8
000000
000000
000000
FFFFF8
FFFFF8
FFFFF8
000038
000038
000038
000038
000038
000038
0001C0
0001C0
0001C0
1FFE00
1FFE00
1FFE00
000000
000000
000000
ENDCHAR
STARTCHAR 30ea
ENCODING 12522
SWIDTH 2880 0
DWIDTH 24 0
BBX 24 24 0 0
BITMAP
1C01C0
1C01C0
1C01C0
1C01C0
1C01C0
1C01C0
1C01C0
1C01C0
1C01C0
1C01C0
1C01C0
1C01C0
0001C0
0001C0
0001C0
000E00
000E00
000E00
1FF000
1FF000
1FF000
000000
000000
000000
ENDCHAR
STARTCHAR 30eb
ENCODING 12523
SWIDTH 2880 0
DWIDTH 24 0
BBX 24 24 0 0
BITMAP
1C7000
1C7000
1C7000
1C7000
1C7000
1C7000
1C7000
1C7000
1C7000
1C7000
1C7000
1C7000
1C7038
1C7038
1C7038
1C7038
1C7038
1C7038
E07FC0
E07FC0
E07FC0
000000
000000
000000
ENDCHAR
STARTCHAR 30ec
ENCODING 12524
SWIDTH 2880 0
DWIDTH 24 0
BBX 24 24 0 0
BITMAP
000000
000000
000000
E00000
E00000
E00000
E00000
E00000
E00000
E00038
E00038
E00038
E001C0
E001C0
E001C0
E07E00
E07E00
E07E00
FF8000
FF8000
FF8000
000000
000000
000000
ENDCHAR
STARTCHAR 30ed
ENCODING 12525
SWIDTH 2880 0
DWIDTH 24 0
BBX 24 24 0 0
BITMAP
000000
000000
000000
FFFFF8
FFFFF8
FFFFF8
E00038
E00038
E00038
E00038
E00038
E00038
E00038
E00038
E00038
E00038
E00038
E00038
FFFFF8
FFFFF8
FFFFF8
000000
000000
000000
ENDCHAR
STARTCHAR 30ef
ENCODING 12527
SWIDTH 2880 0
DWIDTH 24 0
BBX 24 24 0 0
BITMAP
000000
000000
000000
FFFFF8
FFFFF8
FFFFF8
E00038
E00038
E00038
E00038
E00038
E00038
000038
000038
000038
0001C0
0001C0
0001C0
007E00
007E00
007E00
000000
000000
000000
ENDCHAR
STARTCHAR 30f2
ENCODING 12530
SWIDTH 2880 0
DWIDTH 24 0
BBX 24 24 0 0
BITMAP
FFFFF8
FFFFF8
FFFFF8
000038
000038
000038
000038
000038
000038
1FFFF8
1FFFF8
1FFFF8
000038
000038
000038
0001C0
0001C0
0001C0
03FE00
03FE00
03FE00
000000
000000
000000
ENDCHAR
STARTCHAR 30f3
ENCODING 12531
SWIDTH 2880 0
DWIDTH 24 0
BBX 24 24 0 0
BITMAP
000000
000000
000000
FF8000
FF8000
FF8000
000000
000000
000000
000038
000038
000038
000038
000038
000038
0001C0
0001C0
0001C0
FFFE00
FFFE00
FFFE00
000000
000000
000000
ENDCHAR
STARTCHAR 30fb
ENCODING 12539
SWIDTH 2880 0
DWIDTH 24 0
BBX 24 24 0 0
BITMAP
000000
000000
000000
000000
000000
000000
000000
000000
000000
03F000
03F000
03F000
1FFE00
1FFE00
1FFE00
03F000
03F000
03F000
000000
000000
000000
000000
000000
000000
ENDCHAR
STARTCHAR 30fc
ENCODING 12540
SWIDTH 2880 0
DWIDTH 24 0
BBX 24 24 0 0
BITMAP
000000
000000
000000
000000
000000
000000
000000
000000
000000
FC0000
FC0000
FC0000
03FFF8
03FFF8
03FFF8
000000
000000
000000
000000
000000
000000
000000
000000
000000
ENDCHAR
STARTCHAR 4eba
ENCODING 20154
SWIDTH 2880 0
DWIDTH 24 0
BBX 24 24 0 0
BITMAP
03FFC0
03FFC0
03FFC0
03FFC0
03FFC0
03FFC0
03FFC0
03FFC0
03FFC0
E07E07
E07E07
E07E07
1FFFF8
1FFFF8
1FFFF8
007E00
007E00
007E00
03FFC0
03FFC0
03FFC0
FF81FF
FF81FF
FF81FF
ENDCHAR
STARTCHAR 5012
ENCODING 20498
SWIDTH 2880 0
DWIDTH 24 0
BBX 24 24 0 0
BITMAP
E00E00
E00E00
E00E00
E07000
E07000
E07000
FC71FF
FC71FF
FC71FF
1FFFFF
1FFFFF
1FFFFF
1FFFFF
1FFFFF
1FFFFF
FC71FF
FC71FF
FC71FF
E07000
E07000
E07000
E00E00
E00E00
E00E00
ENDCHAR
STARTCHAR 516b
ENCODING 20843
SWIDTH 2880 0
DWIDTH 24 0
BBX 24 24 0 0
BITMAP
007007
007007
007007
000E07
000E07
000E07
FF8E3F
FF8E3F
FF8E3F
FFFFF8
FFFFF8
FFFFF8
FFFFF8
FFFFF8
FFFFF8
FF8E3F
FF8E3F
FF8E3F
000E07
000E07
000E07
007007
007007
007007
ENDCHAR
STARTCHAR 5186
ENCODING 20870
SWIDTH 2880 0
DWIDTH 24 0
BBX 24 24 0 0
BITMAP
FFFFF8
FFFFF8
FFFFF8
E07038
E07038
E07038
E07038
E07038
E07038
FFFFF8
FFFFF8
FFFFF8
E00038
E00038
E00038
E00038
E00038
E00038
E001F8
E001F8
E001F8
000000
000000
000000
ENDCHAR
STARTCHAR 5206
ENCODING 20998
SWIDTH 2880 0
DWIDTH 24 0
BBX 24 24 0 0
BITMAP
007000
007000
007000
038E00
038E00
038E00
1C01C0
1C01C0
1C01C0
E3FE38
E3FE38
E3FE38
0381C0
0381C0
0381C0
0381C0
0381C0
0381C0
1C0E00
1C0E00
1C0E00
000000
000000
000000
ENDCHAR
STARTCHAR 53cd
ENCODING 21453
SWIDTH 2880 0
DWIDTH 24 0
BBX 24 24 0 0
BITMAP
E00E00
E00E00
E00E00
E07000
E07000
E07000
E38000
E38000
E38000
FC0000
FC0000
FC0000
FC0000
FC0000
FC0000
E38E00
E38E00
E38E00
E07E00
E07E00
E07E00
E3FE00
E3FE00
E3FE00
ENDCHAR
STARTCHAR 571f
ENCODING 22303
SWIDTH 2880 0
DWIDTH 24 0
BBX 24 24 0 0
BITMAP
007000
007000
007000
007000
007000
007000
1FFFC0
1FFFC0
1FFFC0
007000
007000
007000
007000
007000
007000
007000
007000
007000
FFFFF8
FFFFF8
FFFFF8
000000
000000
000000
ENDCHAR
STARTCHAR 5c04
ENCODING 23556
SWIDTH 2880 0
DWIDTH 24 0
BBX 24 24 0 0
BITMAP
E38E00
E38E00
E38E00
E3F000
E3F000
E3F000
E3FE00
E3FE00
E3FE00
FC0000
FC0000
FC0000
FC0000
FC0000
FC0000
E38000
E38000
E38000
E07000
E07000
E07000
E00E00
E00E00
E00E00
ENDCHAR
STARTCHAR 5e74
ENCODING 24180
SWIDTH 2880 0
DWIDTH 24 0
BBX 24 24 0 0
BITMAP
1C0000
1C0000
1C0000
1FFFC0
1FFFC0
1FFFC0
E07000
E07000
E07000
1FFFC0
1FFFC0
1FFFC0
1C7000
1C7000
1C7000
FFFFF8
FFFFF8
FFFFF8
007000
007000
007000
000000
000000
000000
ENDCHAR
STARTCHAR 62bc
ENCODING 25276
SWIDTH 2880 0
DWIDTH 24 0
BBX 24 24 0 0
BITMAP
03FE00
03FE00
03FE00
03FE00
03FE00
03FE00
FFFFF8
FFFFF8
FFFFF8
1FFFC0
1FFFC0
1FFFC0
03FE00
03FE00
03FE00
007000
007000
007000
FFFFF8
FFFFF8
FFFFF8
000000
000000
000000
ENDCHAR
STARTCHAR 65e5
ENCODING 26085
SWIDTH 2880 0
DWIDTH 24 0
BBX 24 24 0 0
BITMAP
FFFFF8
FFFFF8
FFFFF8
E00038
E00038
E00038
E00038
E00038
E00038
FFFFF8
FFFFF8
FFFFF8
E00038
E00038
E00038
E00038
E00038
E00038
FFFFF8
FFFFF8
FFFFF8
000000
000000
000000
ENDCHAR
STARTCHAR 661f
ENCODING 26143
SWIDTH 2880 0
DWIDTH 24 0
BBX 24 24 0 0
BITMAP
000000
000000
000000
03803F
03803F
03803F
0381C7
0381C7
0381C7
038E07
038E07
038E07
FFF007
FFF007
FFF007
038E07
038E07
038E07
0381C7
0381C7
0381C7
03803F
03803F
03803F
ENDCHAR
STARTCHAR 6642
ENCODING 26178
SWIDTH 2880 0
DWIDTH 24 0
BBX 24 24 0 0
BITMAP
000E00
000E00
000E00
FFFFC0
FFFFC0
FFFFC0
E38E00
E38E00
E38E00
FFFFF8
FFFFF8
FFFFF8
E381C0
E381C0
E381C0
FFFFF8
FFFFF8
FFFFF8
0071C0
0071C0
0071C0
000000
000000
000000
ENDCHAR
STARTCHAR 6708
ENCODING 26376
SWIDTH 2880 0
DWIDTH 24 0
BBX 24 24 0 0
BITMAP
1FFFF8
1FFFF8
1FFFF8
1C0038
1C0038
1C0038
1FFFF8
1FFFF8
1FFFF8
1C0038
1C0038
1C0038
1FFFF8
1FFFF8
1FFFF8
1C0038
1C0038
1C0038
E00038
E00038
E00038
000000
000000
000000
ENDCHAR
STARTCHAR 6728
ENCODING 26408
SWIDTH 2880 0
DWIDTH 24 0
BBX 24 24 0 0
BITMAP
007000
007000
007000
FFFFF8
FFFFF8
FFFFF8
007000
007000
007000
03FE00
03FE00
03FE00
1C71C0
1C71C0
1C71C0
1C71C0
1C71C0
1C71C0
E07038
E07038
E07038
000000
000000
000000
ENDCHAR
STARTCHAR 672a
ENCODING 26410
SWIDTH 2880 0
DWIDTH 24 0
BBX 24 24 0 0
BITMAP
000000
000000
000000
007E00
007E00
007E00
0381C0
0381C0
0381C0
1FFFF8
1FFFF8
1FFFF8
FFFFFF
FFFFFF
FFFFFF
1FFFF8
1FFFF8
1FFFF8
0381C0
0381C0
0381C0
000000
000000
000000
ENDCHAR
STARTCHAR 6a2a
ENCODING 27178
SWIDTH 2880 0
DWIDTH 24 0
BBX 24 24 0 0
BITMAP
FF8000
FF8000
FF8000
FF81FF
FF81FF
FF81FF
1C01FF
1C01FF
1C01FF
E3FE38
E3FE38
E3FE38
E3FE38
E3FE38
E3FE38
1C01FF
1C01FF
1C01FF
FF81FF
FF81FF
FF81FF
FF8000
FF8000
FF8000
ENDCHAR
STARTCHAR 6c34
ENCODING 27700
SWIDTH 2880 0
DWIDTH 24 0
BBX 24 24 0 0
BITMAP
007000
007000
007000
FFF038
FFF038
FFF038
0071C0
0071C0
0071C0
03FE00
03FE00
03FE00
1C7E00
1C7E00
1C7E00
E071C0
E071C0
E071C0
E07038
E07038
E07038
000000
000000
000000
ENDCHAR
STARTCHAR 6c60
ENCODING 27744
SWIDTH 2880 0
DWIDTH 24 0
BBX 24 24 0 0
BITMAP
000E00
000E00
000E00
000E00
000E00
000E00
03FFF8
03FFF8
03FFF8
000000
000000
000000
000000
000000
000000
03FFF8
03FFF8
03FFF8
000E00
000E00
000E00
000E00
000E00
000E00
ENDCHAR
STARTCHAR 706b
ENCODING 28779
SWIDTH 2880 0
DWIDTH 24 0
BBX 24 24 0 0
BITMAP
007000
007000
007000
E07038
E07038
E07038
E07038
E07038
E07038
007000
007000
007000
038E00
038E00
038E00
1C01C0
1C01C0
1C01C0
E00038
E00038
E00038
000000
000000
000000
ENDCHAR
STARTCHAR 751f
ENCODING 29983
SWIDTH 2880 0
DWIDTH 24 0
BBX 24 24 0 0
BITMAP
007000
007000
007000
1C7000
1C7000
1C7000
FFFFF8
FFFFF8
FFFFF8
E07000
E07000
E07000
1FFFC0
1FFFC0
1FFFC0
007000
007000
007000
FFFFF8
FFFFF8
FFFFF8
000000
000000
000000
ENDCHAR
STARTCHAR 79d2
ENCODING 31186
SWIDTH 2880 0
DWIDTH 24 0
BBX 24 24 0 0
BITMAP
1FF000
1FF000
1FF000
0381C0
0381C0
0381C0
FFFFF8
FFFFF8
FFFFF8
038FF8
038FF8
038FF8
1FF1F8
1FF1F8
1FF1F8
E381C0
E381C0
E381C0
038E00
038E00
038E00
000000
000000
000000
ENDCHAR
STARTCHAR 86c7
ENCODING 34503
SWIDTH 2880 0
DWIDTH 24 0
BBX 24 24 0 0
BITMAP
FF8000
FF8000
FF8000
FF8000
FF8000
FF8000
FF8000
FF8000
FF8000
0381C0
0381C0
0381C0
1C0E38
1C0E38
1C0E38
E00E38
E00E38
E00E38
E07038
E07038
E07038
1F8007
1F8007
1F8007
ENDCHAR
STARTCHAR 885b
ENCODING 34907
SWIDTH 2880 0
DWIDTH 24 0
BBX 24 24 0 0
BITMAP
000000
000000
000000
FC01C0
FC01C0
FC01C0
E381C0
E381C0
E381C0
E071C0
E071C0
E071C0
E00FFF
E00FFF
E00FFF
E071C0
E071C0
E071C0
E381C0
E381C0
E381C0
FC01C0
FC01C0
FC01C0
ENDCHAR
STARTCHAR 8eca
ENCODING 36554
SWIDTH 2880 0
DWIDTH 24 0
BBX 24 24 0 0
BITMAP
1F81F8
1F81F8
1F81F8
1FFFF8
1FFFF8
1FFFF8
1F81F8
1F81F8
1F81F8
007E00
007E00
007E00
007E00
007E00
007E00
FC7E3F
FC7E3F
FC7E3F
FF81FF
FF81FF
FF81FF
FC7E3F
FC7E3F
FC7E3F
ENDCHAR
STARTCHAR 9006
ENCODING 36870
SWIDTH 2880 0
DWIDTH 24 0
BBX 24 24 0 0
BITMAP
FF81FF
FF81FF
FF81FF
03FFC0
03FFC0
03FFC0
007E00
007E00
007E00
1FFFF8
1FFFF8
1FFFF8
E07E07
E07E07
E07E07
03FFC0
03FFC0
03FFC0
03FFC0
03FFC0
03FFC0
03FFC0
03FFC0
03FFC0
ENDCHAR
STARTCHAR 91d1
ENCODING 37329
SWIDTH 2880 0
DWIDTH 24 0
BBX 24 24 0 0
BITMAP
007000
007000
007000
038E00
038E00
038E00
1FFFC0
1FFFC0
1FFFC0
E3FE38
E3FE38
E3FE38
1C71C0
1C71C0
1C71C0
03FE00
03FE00
03FE00
FFFFF8
FFFFF8
FFFFF8
000000
000000
000000
ENDCHAR
STARTCHAR 96fb
ENCODING 38651
SWIDTH 2880 0
DWIDTH 24 0
BBX 24 24 0 0
BITMAP
000000
000000
000000
000000
000000
000000
0381C0
0381C0
0381C0
0381C0
0381C0
0381C0
FF81FF
FF81FF
FF81FF
0381C0
0381C0
0381C0
0381C0
0381C0
0381C0
000000
000000
000000
ENDCHAR
STARTCHAR ff01
ENCODING 65281
SWIDTH 2880 0
DWIDTH 24 0
BBX 24 24 0 0
BITMAP
007000
007000
007000
038000
038000
038000
038000
038000
038000
007000
007000
007000
000E00
000E00
000E00
0001C0
0001C0
0001C0
0001C0
0001C0
0001C0
000E00
000E00
000E00
ENDCHAR
STARTCHAR ff0c
ENCODING 65292
SWIDTH 2880 0
DWIDTH 24 0
BBX 24 24 0 0
BITMAP
000000
000000
000000
000000
000000
000000
000000
000000
000000
000000
000000
000000
E00000
E00000
E00000
1C0000
1C0000
1C0000
038000
038000
038000
000000
000000
000000
ENDCHAR
STARTCHAR ff0e
ENCODING 65294
SWIDTH 2880 0
DWIDTH 24 0
BBX 24 24 0 0
BITMAP
000000
000000
000000
000000
000000
000000
000000
000000
000000
007E00
007E00
007E00
007E00
007E00
007E00
000000
000000
000000
000000
000000
000000
000000
000000
000000
ENDCHAR
STARTCHAR ff0f
ENCODING 65295
SWIDTH 2880 0
DWIDTH 24 0
BBX 24 24 0 0
BITMAP
000007
000007
000007
000038
000038
000038
0001C0
0001C0
0001C0
000E00
000E00
000E00
007000
007000
007000
038000
038000
038000
1C0000
1C0000
1C0000
E00000
E00000
E00000
ENDCHAR
STARTCHAR ff11
ENCODING 65297
SWIDTH 2880 0
DWIDTH 24 0
BBX 24 24 0 0
BITMAP
000000
000000
000000
000000
000000
000000
000000
000000
000000
000000
000000
000000
000000
000000
000000
000000
000000
000000
FFFFFF
FFFFFF
FFFFFF
000000
000000
000000
ENDCHAR
STARTCHAR ff12
ENCODING 65298
SWIDTH 2880 0
DWIDTH 24 0
BBX 24 24 0 0
BITMAP
000000
000000
000000
000000
000000
000000
000000
000000
000000
000000
000000
000000
000000
000000
000000
FFFFFF
FFFFFF
FFFFFF
000000
000000
000000
000000
000000
000000
ENDCHAR
STARTCHAR ff13
ENCODING 65299
SWIDTH 2880 0
DWIDTH 24 0
BBX 24 24 0 0
BITMAP
000000
000000
000000
000000
000000
000000
000000
000000
000000
FFFFFF
FFFFFF
FFFFFF
000000
000000
000000
000000
000000
000000
000000
000000
000000
000000
000000
000000
ENDCHAR
STARTCHAR ff14
ENCODING 65300
SWIDTH 2880 0
DWIDTH 24 0
BBX 24 24 0 0
BITMAP
000000
000000
000000
000000
000000
000000
FFFFFF
FFFFFF
FFFFFF
000000
000000
000000
000000
000000
000000
000000
000000
000000
000000
000000
000000
000000
000000
000000
ENDCHAR
STARTCHAR ff15
ENCODING 65301
SWIDTH 2880 0
DWIDTH 24 0
BBX 24 24 0 0
BITMAP
000000
000000
000000
FFFFFF
FFFFFF
FFFFFF
000000
000000
000000
000000
000000
000000
000000
000000
000000
000000
000000
000000
000000
000000
000000
000000
000000
000000
ENDCHAR
STARTCHAR ff1c
ENCODING 65308
SWIDTH 2880 0
DWIDTH 24 0
BBX 24 24 0 0
BITMAP
000000
000000
000000
1FF000
1FF000
1FF000
E00E00
E00E00
E00E00
1C01C0
1C01C0
1C01C0
03803F
03803F
03803F
038000
038000
038000
1C0000
1C0000
1C0000
E00000
E00000
E00000
ENDCHAR
STARTCHAR ff1d
ENCODING 65309
SWIDTH 2880 0
DWIDTH 24 0
BBX 24 24 0 0
BITMAP
000000
000000
000000
FFFFFF
FFFFFF
FFFFFF
000000
000000
000000
E00007
E00007
E00007
1C0038
1C0038
1C0038
1C0038
1C0038
1C0038
E00007
E00007
E00007
000000
000000
000000
ENDCHAR
STARTCHAR ff1e
ENCODING 65310
SWIDTH 2880 0
DWIDTH 24 0
BBX 24 24 0 0
BITMAP
000000
000000
000000
000FF8
000FF8
000FF8
007007
007007
007007
038038
038038
038038
FC01C0
FC01C0
FC01C0
0001C0
0001C0
0001C0
000038
000038
000038
000007
000007
000007
ENDCHAR
STARTCHAR ff39
ENCODING 65337
SWIDTH 2880 0
DWIDTH 24 0
BBX 24 24 0 0
BITMAP
E00000
E00000
E00000
1C0000
1C0000
1C0000
038000
038000
038000
007000
007000
007000
007FFF
007FFF
007FFF
038000
038000
038000
1C0000
1C0000
1C0000
E00000
E00000
E00000
ENDCHAR
STARTCHAR ff3c
ENCODING 65340
SWIDTH 2880 0
DWIDTH 24 0
BBX 24 24 0 0
BITMAP
E00000
E00000
E00000
1C0000
1C0000
1C0000
038000
038000
038000
007000
007000
007000
000E00
000E00
000E00
0001C0
0001C0
0001C0
000038
000038
000038
000007
000007
000007
ENDCHAR
STARTCHAR ffe1
ENCODING 65505
SWIDTH 2880 0
DWIDTH 24 0
BBX 24 24 0 0
BITMAP
007FC0
007FC0
007FC0
038000
038000
038000
038000
038000
038000
1FFE00
1FFE00
1FFE00
038000
038000
038000
038000
038000
038000
FFFFC0
FFFFC0
FFFFC0
000000
000000
000000
ENDCHAR
STARTCHAR ffe3
ENCODING 65507
SWIDTH 2880 0
DWIDTH 24 0
BBX 24 24 0 0
BITMAP
FFFFFF
FFFFFF
FFFFFF
000000
000000
000000
000000
000000
000000
000000
000000
000000
000000
000000
000000
000000
000000
000000
000000
000000
000000
000000
000000
000000
ENDCHAR
STARTCHAR ffe5
ENCODING 65509
SWIDTH 2880 0
DWIDTH 24 0
BBX 24 24 0 0
BITMAP
E00038
E00038
E00038
1C01C0
1C01C0
1C01C0
038E00
038E00
038E00
FFFFF8
FFFFF8
FFFFF8
007000
007000
007000
FFFFF8
FFFFF8
FFFFF8
007000
007000
007000
000000
000000
000000
ENDCHAR
ENDFONT
